<svg xmlns="http://www.w3.org/2000/svg" xmlns:xlink="http://www.w3.org/1999/xlink" width="300" zoomAndPan="magnify" viewBox="0 0 224.87999 44.999999" height="60" preserveAspectRatio="xMidYMid meet" version="1.0"><defs><g/><clipPath id="02357508ee"><rect x="0" width="155" y="0" height="22"/></clipPath><clipPath id="7895ee1df6"><path d="M 0.0507812 4 L 4 4 L 4 9.753906 L 0.0507812 9.753906 Z M 0.0507812 4 " clip-rule="nonzero"/></clipPath><clipPath id="6a563be81f"><rect x="0" width="102" y="0" height="10"/></clipPath><clipPath id="edb831347a"><path d="M 187.792969 7.980469 L 209.53125 7.980469 L 209.53125 37.214844 L 187.792969 37.214844 Z M 187.792969 7.980469 " clip-rule="nonzero"/></clipPath></defs><g transform="matrix(1, 0, 0, 1, 25, 7)"><g clip-path="url(#02357508ee)"><g fill="#ffffff" fill-opacity="1"><g transform="translate(1.609845, 15.329424)"><g><path d="M 3.078125 0 L 3.078125 0.703125 C 3.078125 1.609375 2.847656 2.304688 2.390625 2.796875 C 1.941406 3.296875 1.351562 3.546875 0.625 3.546875 L -0.453125 3.546875 L -0.453125 1.359375 L 0.609375 1.359375 C 0.773438 1.359375 0.90625 1.296875 1 1.171875 C 1.09375 1.054688 1.140625 0.898438 1.140625 0.703125 L 1.140625 -4.5 L 3.078125 -5.71875 L 3.078125 -2.203125 L 4.03125 -2.203125 L 4.03125 0 Z M 1.34375 -7.234375 C 1.34375 -7.429688 1.414062 -7.609375 1.5625 -7.765625 C 1.707031 -7.921875 1.882812 -8 2.09375 -8 C 2.300781 -8 2.476562 -7.921875 2.625 -7.765625 C 2.78125 -7.609375 2.859375 -7.429688 2.859375 -7.234375 C 2.859375 -7.015625 2.78125 -6.832031 2.625 -6.6875 C 2.476562 -6.550781 2.300781 -6.484375 2.09375 -6.484375 C 1.882812 -6.484375 1.707031 -6.550781 1.5625 -6.6875 C 1.414062 -6.832031 1.34375 -7.015625 1.34375 -7.234375 Z M 1.34375 -7.234375 "/></g></g></g><g fill="#ffffff" fill-opacity="1"><g transform="translate(5.646987, 15.329424)"><g><path d="M -0.890625 -1.09375 C -0.890625 -1.25 -0.859375 -1.394531 -0.796875 -1.53125 C -0.742188 -1.664062 -0.675781 -1.78125 -0.59375 -1.875 C -0.507812 -1.976562 -0.414062 -2.054688 -0.3125 -2.109375 C -0.207031 -2.171875 -0.101562 -2.203125 0 -2.203125 L 3.046875 -2.203125 L 3.046875 0 L 0 0 C -0.101562 0 -0.207031 -0.0234375 -0.3125 -0.078125 C -0.414062 -0.140625 -0.507812 -0.21875 -0.59375 -0.3125 C -0.675781 -0.414062 -0.742188 -0.535156 -0.796875 -0.671875 C -0.859375 -0.804688 -0.890625 -0.945312 -0.890625 -1.09375 Z M -0.890625 -1.09375 "/></g></g></g><g fill="#ffffff" fill-opacity="1"><g transform="translate(8.693888, 15.329424)"><g><path d="M -0.890625 -1.09375 C -0.890625 -1.25 -0.859375 -1.394531 -0.796875 -1.53125 C -0.742188 -1.664062 -0.675781 -1.78125 -0.59375 -1.875 C -0.507812 -1.976562 -0.414062 -2.054688 -0.3125 -2.109375 C -0.207031 -2.171875 -0.101562 -2.203125 0 -2.203125 L 3.046875 -2.203125 L 3.046875 0 L 0 0 C -0.101562 0 -0.207031 -0.0234375 -0.3125 -0.078125 C -0.414062 -0.140625 -0.507812 -0.21875 -0.59375 -0.3125 C -0.675781 -0.414062 -0.742188 -0.535156 -0.796875 -0.671875 C -0.859375 -0.804688 -0.890625 -0.945312 -0.890625 -1.09375 Z M -0.890625 -1.09375 "/></g></g></g><g fill="#ffffff" fill-opacity="1"><g transform="translate(11.740789, 15.329424)"><g><path d="M -0.890625 -1.09375 C -0.890625 -1.25 -0.859375 -1.394531 -0.796875 -1.53125 C -0.742188 -1.664062 -0.675781 -1.78125 -0.59375 -1.875 C -0.507812 -1.976562 -0.414062 -2.054688 -0.3125 -2.109375 C -0.207031 -2.171875 -0.101562 -2.203125 0 -2.203125 L 3.046875 -2.203125 L 3.046875 0 L 0 0 C -0.101562 0 -0.207031 -0.0234375 -0.3125 -0.078125 C -0.414062 -0.140625 -0.507812 -0.21875 -0.59375 -0.3125 C -0.675781 -0.414062 -0.742188 -0.535156 -0.796875 -0.671875 C -0.859375 -0.804688 -0.890625 -0.945312 -0.890625 -1.09375 Z M -0.890625 -1.09375 "/></g></g></g><g fill="#ffffff" fill-opacity="1"><g transform="translate(14.787691, 15.329424)"><g><path d="M -0.890625 -1.09375 C -0.890625 -1.25 -0.859375 -1.394531 -0.796875 -1.53125 C -0.742188 -1.664062 -0.675781 -1.78125 -0.59375 -1.875 C -0.507812 -1.976562 -0.414062 -2.054688 -0.3125 -2.109375 C -0.207031 -2.171875 -0.101562 -2.203125 0 -2.203125 C 0.101562 -2.203125 0.207031 -2.21875 0.3125 -2.25 C 0.425781 -2.289062 0.53125 -2.34375 0.625 -2.40625 C 0.726562 -2.476562 0.804688 -2.5625 0.859375 -2.65625 C 0.921875 -2.757812 0.953125 -2.878906 0.953125 -3.015625 L 0.953125 -4.46875 L 2.890625 -5.71875 L 2.890625 -3.015625 C 2.890625 -2.753906 2.992188 -2.550781 3.203125 -2.40625 C 3.421875 -2.269531 3.640625 -2.203125 3.859375 -2.203125 L 3.859375 0 C 3.554688 0 3.300781 -0.0234375 3.09375 -0.078125 C 2.882812 -0.128906 2.707031 -0.195312 2.5625 -0.28125 C 2.414062 -0.363281 2.296875 -0.457031 2.203125 -0.5625 C 2.109375 -0.664062 2.023438 -0.765625 1.953125 -0.859375 C 1.890625 -0.773438 1.8125 -0.679688 1.71875 -0.578125 C 1.632812 -0.472656 1.519531 -0.378906 1.375 -0.296875 C 1.226562 -0.210938 1.039062 -0.140625 0.8125 -0.078125 C 0.59375 -0.0234375 0.320312 0 0 0 C -0.101562 0 -0.207031 -0.0234375 -0.3125 -0.078125 C -0.414062 -0.140625 -0.507812 -0.21875 -0.59375 -0.3125 C -0.675781 -0.414062 -0.742188 -0.535156 -0.796875 -0.671875 C -0.859375 -0.804688 -0.890625 -0.945312 -0.890625 -1.09375 Z M 0.3125 1.5 C 0.3125 1.300781 0.378906 1.125 0.515625 0.96875 C 0.660156 0.8125 0.835938 0.734375 1.046875 0.734375 C 1.253906 0.734375 1.429688 0.8125 1.578125 0.96875 C 1.734375 1.125 1.8125 1.300781 1.8125 1.5 C 1.8125 1.71875 1.734375 1.894531 1.578125 2.03125 C 1.429688 2.175781 1.253906 2.25 1.046875 2.25 C 0.835938 2.25 0.660156 2.175781 0.515625 2.03125 C 0.378906 1.894531 0.3125 1.71875 0.3125 1.5 Z M 2.046875 1.5 C 2.046875 1.300781 2.113281 1.125 2.25 0.96875 C 2.394531 0.8125 2.578125 0.734375 2.796875 0.734375 C 2.992188 0.734375 3.164062 0.8125 3.3125 0.96875 C 3.46875 1.125 3.546875 1.300781 3.546875 1.5 C 3.546875 1.71875 3.46875 1.894531 3.3125 2.03125 C 3.164062 2.175781 2.992188 2.25 2.796875 2.25 C 2.578125 2.25 2.394531 2.175781 2.25 2.03125 C 2.113281 1.894531 2.046875 1.71875 2.046875 1.5 Z M 2.046875 1.5 "/></g></g></g><g fill="#ffffff" fill-opacity="1"><g transform="translate(18.642019, 15.329424)"><g><path d="M -0.890625 -1.09375 C -0.890625 -1.25 -0.859375 -1.394531 -0.796875 -1.53125 C -0.742188 -1.664062 -0.675781 -1.78125 -0.59375 -1.875 C -0.507812 -1.976562 -0.414062 -2.054688 -0.3125 -2.109375 C -0.207031 -2.171875 -0.101562 -2.203125 0 -2.203125 L 3.046875 -2.203125 L 3.046875 0 L 0 0 C -0.101562 0 -0.207031 -0.0234375 -0.3125 -0.078125 C -0.414062 -0.140625 -0.507812 -0.21875 -0.59375 -0.3125 C -0.675781 -0.414062 -0.742188 -0.535156 -0.796875 -0.671875 C -0.859375 -0.804688 -0.890625 -0.945312 -0.890625 -1.09375 Z M -0.890625 -1.09375 "/></g></g></g><g fill="#ffffff" fill-opacity="1"><g transform="translate(21.68892, 15.329424)"><g><path d="M -0.890625 -1.09375 C -0.890625 -1.25 -0.859375 -1.394531 -0.796875 -1.53125 C -0.742188 -1.664062 -0.675781 -1.78125 -0.59375 -1.875 C -0.507812 -1.976562 -0.414062 -2.054688 -0.3125 -2.109375 C -0.207031 -2.171875 -0.101562 -2.203125 0 -2.203125 L 3.046875 -2.203125 L 3.046875 0 L 0 0 C -0.101562 0 -0.207031 -0.0234375 -0.3125 -0.078125 C -0.414062 -0.140625 -0.507812 -0.21875 -0.59375 -0.3125 C -0.675781 -0.414062 -0.742188 -0.535156 -0.796875 -0.671875 C -0.859375 -0.804688 -0.890625 -0.945312 -0.890625 -1.09375 Z M -0.890625 -1.09375 "/></g></g></g><g fill="#ffffff" fill-opacity="1"><g transform="translate(24.735821, 15.329424)"><g><path d="M 3.796875 -6.09375 C 4.265625 -6.09375 4.679688 -6.003906 5.046875 -5.828125 C 5.421875 -5.660156 5.734375 -5.429688 5.984375 -5.140625 C 6.234375 -4.847656 6.421875 -4.519531 6.546875 -4.15625 C 6.679688 -3.789062 6.75 -3.414062 6.75 -3.03125 C 6.75 -2.945312 6.753906 -2.859375 6.765625 -2.765625 C 6.785156 -2.671875 6.828125 -2.582031 6.890625 -2.5 C 6.960938 -2.414062 7.0625 -2.34375 7.1875 -2.28125 C 7.3125 -2.226562 7.484375 -2.203125 7.703125 -2.203125 L 7.703125 0 C 6.847656 0 6.179688 -0.1875 5.703125 -0.5625 C 5.472656 -0.40625 5.207031 -0.28125 4.90625 -0.1875 C 4.613281 -0.09375 4.265625 -0.03125 3.859375 0 C 3.128906 -0.0507812 2.53125 -0.242188 2.0625 -0.578125 C 1.582031 -0.191406 0.894531 0 0 0 C -0.207031 0 -0.40625 -0.101562 -0.59375 -0.3125 C -0.789062 -0.519531 -0.890625 -0.78125 -0.890625 -1.09375 C -0.890625 -1.25 -0.859375 -1.394531 -0.796875 -1.53125 C -0.742188 -1.664062 -0.675781 -1.78125 -0.59375 -1.875 C -0.507812 -1.976562 -0.414062 -2.054688 -0.3125 -2.109375 C -0.207031 -2.171875 -0.101562 -2.203125 0 -2.203125 C 0.34375 -2.203125 0.585938 -2.273438 0.734375 -2.421875 C 0.878906 -2.578125 0.953125 -2.785156 0.953125 -3.046875 C 0.953125 -3.421875 1.019531 -3.789062 1.15625 -4.15625 C 1.289062 -4.519531 1.476562 -4.847656 1.71875 -5.140625 C 1.96875 -5.429688 2.265625 -5.660156 2.609375 -5.828125 C 2.960938 -6.003906 3.359375 -6.09375 3.796875 -6.09375 Z M 2.890625 -3.015625 C 2.890625 -2.921875 2.90625 -2.828125 2.9375 -2.734375 C 2.96875 -2.648438 3.019531 -2.566406 3.09375 -2.484375 C 3.175781 -2.398438 3.273438 -2.332031 3.390625 -2.28125 C 3.515625 -2.226562 3.671875 -2.203125 3.859375 -2.203125 C 4.203125 -2.203125 4.445312 -2.289062 4.59375 -2.46875 C 4.738281 -2.65625 4.8125 -2.835938 4.8125 -3.015625 C 4.8125 -3.242188 4.726562 -3.445312 4.5625 -3.625 C 4.394531 -3.800781 4.179688 -3.890625 3.921875 -3.890625 C 3.597656 -3.890625 3.34375 -3.804688 3.15625 -3.640625 C 2.976562 -3.472656 2.890625 -3.265625 2.890625 -3.015625 Z M 2.890625 -3.015625 "/></g></g></g><g fill="#ffffff" fill-opacity="1"><g transform="translate(32.444485, 15.329424)"><g><path d="M -0.890625 -1.09375 C -0.890625 -1.25 -0.859375 -1.394531 -0.796875 -1.53125 C -0.742188 -1.664062 -0.675781 -1.78125 -0.59375 -1.875 C -0.507812 -1.976562 -0.414062 -2.054688 -0.3125 -2.109375 C -0.207031 -2.171875 -0.101562 -2.203125 0 -2.203125 L 3.046875 -2.203125 L 3.046875 0 L 0 0 C -0.101562 0 -0.207031 -0.0234375 -0.3125 -0.078125 C -0.414062 -0.140625 -0.507812 -0.21875 -0.59375 -0.3125 C -0.675781 -0.414062 -0.742188 -0.535156 -0.796875 -0.671875 C -0.859375 -0.804688 -0.890625 -0.945312 -0.890625 -1.09375 Z M -0.890625 -1.09375 "/></g></g></g><g fill="#ffffff" fill-opacity="1"><g transform="translate(35.491386, 15.329424)"><g><path d="M -0.890625 -1.09375 C -0.890625 -1.25 -0.859375 -1.394531 -0.796875 -1.53125 C -0.742188 -1.664062 -0.675781 -1.78125 -0.59375 -1.875 C -0.507812 -1.976562 -0.414062 -2.054688 -0.3125 -2.109375 C -0.207031 -2.171875 -0.101562 -2.203125 0 -2.203125 L 3.046875 -2.203125 L 3.046875 0 L 0 0 C -0.101562 0 -0.207031 -0.0234375 -0.3125 -0.078125 C -0.414062 -0.140625 -0.507812 -0.21875 -0.59375 -0.3125 C -0.675781 -0.414062 -0.742188 -0.535156 -0.796875 -0.671875 C -0.859375 -0.804688 -0.890625 -0.945312 -0.890625 -1.09375 Z M -0.890625 -1.09375 "/></g></g></g><g fill="#ffffff" fill-opacity="1"><g transform="translate(38.538287, 15.329424)"><g><path d="M -0.890625 -1.09375 C -0.890625 -1.25 -0.859375 -1.394531 -0.796875 -1.53125 C -0.742188 -1.664062 -0.675781 -1.78125 -0.59375 -1.875 C -0.507812 -1.976562 -0.414062 -2.054688 -0.3125 -2.109375 C -0.207031 -2.171875 -0.101562 -2.203125 0 -2.203125 L 3.046875 -2.203125 L 3.046875 0 L 0 0 C -0.101562 0 -0.207031 -0.0234375 -0.3125 -0.078125 C -0.414062 -0.140625 -0.507812 -0.21875 -0.59375 -0.3125 C -0.675781 -0.414062 -0.742188 -0.535156 -0.796875 -0.671875 C -0.859375 -0.804688 -0.890625 -0.945312 -0.890625 -1.09375 Z M -0.890625 -1.09375 "/></g></g></g><g fill="#ffffff" fill-opacity="1"><g transform="translate(41.585188, 15.329424)"><g><path d="M 2.890625 -6.09375 L 2.890625 -2.828125 C 2.890625 -1.878906 2.660156 -1.171875 2.203125 -0.703125 C 1.753906 -0.234375 1.019531 0 0 0 C -0.101562 0 -0.207031 -0.0234375 -0.3125 -0.078125 C -0.414062 -0.140625 -0.507812 -0.21875 -0.59375 -0.3125 C -0.675781 -0.414062 -0.742188 -0.535156 -0.796875 -0.671875 C -0.859375 -0.804688 -0.890625 -0.945312 -0.890625 -1.09375 C -0.890625 -1.25 -0.859375 -1.394531 -0.796875 -1.53125 C -0.742188 -1.664062 -0.675781 -1.78125 -0.59375 -1.875 C -0.507812 -1.976562 -0.414062 -2.054688 -0.3125 -2.109375 C -0.207031 -2.171875 -0.101562 -2.203125 0 -2.203125 C 0.34375 -2.203125 0.585938 -2.289062 0.734375 -2.46875 C 0.878906 -2.65625 0.953125 -2.910156 0.953125 -3.234375 L 0.953125 -4.875 Z M 0.15625 -7.609375 C 0.15625 -7.804688 0.222656 -7.984375 0.359375 -8.140625 C 0.503906 -8.296875 0.679688 -8.375 0.890625 -8.375 C 1.097656 -8.375 1.273438 -8.296875 1.421875 -8.140625 C 1.578125 -7.984375 1.65625 -7.804688 1.65625 -7.609375 C 1.65625 -7.390625 1.578125 -7.207031 1.421875 -7.0625 C 1.273438 -6.925781 1.097656 -6.859375 0.890625 -6.859375 C 0.679688 -6.859375 0.503906 -6.925781 0.359375 -7.0625 C 0.222656 -7.207031 0.15625 -7.390625 0.15625 -7.609375 Z M 1.890625 -7.609375 C 1.890625 -7.804688 1.957031 -7.984375 2.09375 -8.140625 C 2.238281 -8.296875 2.421875 -8.375 2.640625 -8.375 C 2.835938 -8.375 3.007812 -8.296875 3.15625 -8.140625 C 3.3125 -7.984375 3.390625 -7.804688 3.390625 -7.609375 C 3.390625 -7.390625 3.3125 -7.207031 3.15625 -7.0625 C 3.007812 -6.925781 2.835938 -6.859375 2.640625 -6.859375 C 2.421875 -6.859375 2.238281 -6.925781 2.09375 -7.0625 C 1.957031 -7.207031 1.890625 -7.390625 1.890625 -7.609375 Z M 1.890625 -7.609375 "/></g></g></g><g fill="#ffffff" fill-opacity="1"><g transform="translate(45.439517, 15.329424)"><g><path d="M 3.828125 -6.09375 C 4.234375 -6.09375 4.601562 -6.007812 4.9375 -5.84375 C 5.28125 -5.6875 5.578125 -5.46875 5.828125 -5.1875 C 6.078125 -4.90625 6.269531 -4.578125 6.40625 -4.203125 C 6.539062 -3.828125 6.609375 -3.429688 6.609375 -3.015625 L 6.609375 -0.515625 C 6.609375 0.148438 6.484375 0.734375 6.234375 1.234375 C 5.984375 1.742188 5.640625 2.171875 5.203125 2.515625 C 4.765625 2.859375 4.238281 3.113281 3.625 3.28125 C 3.019531 3.457031 2.351562 3.546875 1.625 3.546875 L 1.625 1.671875 C 1.9375 1.671875 2.234375 1.628906 2.515625 1.546875 C 2.804688 1.460938 3.078125 1.34375 3.328125 1.1875 C 3.585938 1.03125 3.828125 0.847656 4.046875 0.640625 C 4.265625 0.441406 4.453125 0.226562 4.609375 0 L 4.140625 0 C 3.660156 0 3.222656 -0.0625 2.828125 -0.1875 C 2.441406 -0.320312 2.109375 -0.515625 1.828125 -0.765625 C 1.554688 -1.023438 1.34375 -1.34375 1.1875 -1.71875 C 1.03125 -2.101562 0.953125 -2.539062 0.953125 -3.03125 C 0.953125 -3.414062 1.019531 -3.789062 1.15625 -4.15625 C 1.289062 -4.519531 1.484375 -4.847656 1.734375 -5.140625 C 1.984375 -5.429688 2.28125 -5.660156 2.625 -5.828125 C 2.976562 -6.003906 3.378906 -6.09375 3.828125 -6.09375 Z M 4.6875 -2.203125 L 4.6875 -3.015625 C 4.6875 -3.210938 4.609375 -3.40625 4.453125 -3.59375 C 4.304688 -3.789062 4.097656 -3.890625 3.828125 -3.890625 C 3.554688 -3.890625 3.332031 -3.800781 3.15625 -3.625 C 2.976562 -3.445312 2.890625 -3.242188 2.890625 -3.015625 C 2.890625 -2.828125 2.984375 -2.644531 3.171875 -2.46875 C 3.367188 -2.289062 3.691406 -2.203125 4.140625 -2.203125 Z M 4.6875 -2.203125 "/></g></g></g><g fill="#ffffff" fill-opacity="1"><g transform="translate(53.011064, 15.329424)"><g/></g></g><g fill="#ffffff" fill-opacity="1"><g transform="translate(54.534515, 15.329424)"><g><path d="M 3.8125 -2.75 C 3.507812 -2.519531 3.28125 -2.25 3.125 -1.9375 C 2.976562 -1.632812 2.90625 -1.316406 2.90625 -0.984375 C 2.90625 -0.722656 2.953125 -0.46875 3.046875 -0.21875 C 3.148438 0.0195312 3.289062 0.234375 3.46875 0.421875 C 3.65625 0.617188 3.882812 0.769531 4.15625 0.875 C 4.4375 0.988281 4.753906 1.046875 5.109375 1.046875 C 5.453125 1.046875 5.769531 0.988281 6.0625 0.875 C 6.363281 0.769531 6.625 0.625 6.84375 0.4375 C 7.0625 0.257812 7.234375 0.0507812 7.359375 -0.1875 C 7.484375 -0.4375 7.546875 -0.695312 7.546875 -0.96875 L 7.546875 -9.75 L 9.46875 -10.96875 L 9.46875 -0.828125 C 9.46875 -0.0859375 9.34375 0.535156 9.09375 1.046875 C 8.84375 1.554688 8.507812 1.972656 8.09375 2.296875 C 7.675781 2.617188 7.203125 2.859375 6.671875 3.015625 C 6.148438 3.171875 5.628906 3.25 5.109375 3.25 C 4.523438 3.25 3.976562 3.15625 3.46875 2.96875 C 2.96875 2.78125 2.53125 2.515625 2.15625 2.171875 C 1.78125 1.835938 1.484375 1.4375 1.265625 0.96875 C 1.054688 0.507812 0.953125 -0.00390625 0.953125 -0.578125 C 0.953125 -1.203125 1.117188 -1.789062 1.453125 -2.34375 C 1.796875 -2.894531 2.238281 -3.378906 2.78125 -3.796875 Z M 3.8125 -2.75 "/></g></g></g><g fill="#ffffff" fill-opacity="1"><g transform="translate(64.97015, 15.329424)"><g><path d="M 3.828125 -6.09375 C 4.234375 -6.09375 4.601562 -6.007812 4.9375 -5.84375 C 5.28125 -5.6875 5.578125 -5.46875 5.828125 -5.1875 C 6.078125 -4.90625 6.269531 -4.578125 6.40625 -4.203125 C 6.539062 -3.828125 6.609375 -3.429688 6.609375 -3.015625 L 6.609375 -2.203125 L 7.578125 -2.203125 L 7.578125 0 L 6.578125 0 C 6.515625 0.582031 6.347656 1.09375 6.078125 1.53125 C 5.804688 1.976562 5.453125 2.347656 5.015625 2.640625 C 4.585938 2.941406 4.082031 3.164062 3.5 3.3125 C 2.925781 3.46875 2.300781 3.546875 1.625 3.546875 L 1.625 1.671875 C 1.9375 1.671875 2.234375 1.628906 2.515625 1.546875 C 2.804688 1.460938 3.078125 1.34375 3.328125 1.1875 C 3.585938 1.03125 3.828125 0.847656 4.046875 0.640625 C 4.265625 0.441406 4.453125 0.226562 4.609375 0 L 4.140625 0 C 3.660156 0 3.222656 -0.0625 2.828125 -0.1875 C 2.441406 -0.320312 2.109375 -0.515625 1.828125 -0.765625 C 1.554688 -1.023438 1.34375 -1.34375 1.1875 -1.71875 C 1.03125 -2.101562 0.953125 -2.539062 0.953125 -3.03125 C 0.953125 -3.414062 1.019531 -3.789062 1.15625 -4.15625 C 1.289062 -4.519531 1.484375 -4.847656 1.734375 -5.140625 C 1.984375 -5.429688 2.28125 -5.660156 2.625 -5.828125 C 2.976562 -6.003906 3.378906 -6.09375 3.828125 -6.09375 Z M 4.6875 -2.203125 L 4.6875 -3.015625 C 4.6875 -3.210938 4.609375 -3.40625 4.453125 -3.59375 C 4.304688 -3.789062 4.097656 -3.890625 3.828125 -3.890625 C 3.554688 -3.890625 3.332031 -3.800781 3.15625 -3.625 C 2.976562 -3.445312 2.890625 -3.242188 2.890625 -3.015625 C 2.890625 -2.828125 2.984375 -2.644531 3.171875 -2.46875 C 3.367188 -2.289062 3.691406 -2.203125 4.140625 -2.203125 Z M 4.6875 -2.203125 "/></g></g></g><g fill="#ffffff" fill-opacity="1"><g transform="translate(72.541698, 15.329424)"><g><path d="M -0.890625 -1.09375 C -0.890625 -1.25 -0.859375 -1.394531 -0.796875 -1.53125 C -0.742188 -1.664062 -0.675781 -1.78125 -0.59375 -1.875 C -0.507812 -1.976562 -0.414062 -2.054688 -0.3125 -2.109375 C -0.207031 -2.171875 -0.101562 -2.203125 0 -2.203125 L 3.046875 -2.203125 L 3.046875 0 L 0 0 C -0.101562 0 -0.207031 -0.0234375 -0.3125 -0.078125 C -0.414062 -0.140625 -0.507812 -0.21875 -0.59375 -0.3125 C -0.675781 -0.414062 -0.742188 -0.535156 -0.796875 -0.671875 C -0.859375 -0.804688 -0.890625 -0.945312 -0.890625 -1.09375 Z M -0.890625 -1.09375 "/></g></g></g><g fill="#ffffff" fill-opacity="1"><g transform="translate(75.588599, 15.329424)"><g><path d="M -0.890625 -1.09375 C -0.890625 -1.25 -0.859375 -1.394531 -0.796875 -1.53125 C -0.742188 -1.664062 -0.675781 -1.78125 -0.59375 -1.875 C -0.507812 -1.976562 -0.414062 -2.054688 -0.3125 -2.109375 C -0.207031 -2.171875 -0.101562 -2.203125 0 -2.203125 L 3.046875 -2.203125 L 3.046875 0 L 0 0 C -0.101562 0 -0.207031 -0.0234375 -0.3125 -0.078125 C -0.414062 -0.140625 -0.507812 -0.21875 -0.59375 -0.3125 C -0.675781 -0.414062 -0.742188 -0.535156 -0.796875 -0.671875 C -0.859375 -0.804688 -0.890625 -0.945312 -0.890625 -1.09375 Z M -0.890625 -1.09375 "/></g></g></g><g fill="#ffffff" fill-opacity="1"><g transform="translate(78.6355, 15.329424)"><g><path d="M -0.890625 -1.09375 C -0.890625 -1.25 -0.859375 -1.394531 -0.796875 -1.53125 C -0.742188 -1.664062 -0.675781 -1.78125 -0.59375 -1.875 C -0.507812 -1.976562 -0.414062 -2.054688 -0.3125 -2.109375 C -0.207031 -2.171875 -0.101562 -2.203125 0 -2.203125 L 3.046875 -2.203125 L 3.046875 0 L 0 0 C -0.101562 0 -0.207031 -0.0234375 -0.3125 -0.078125 C -0.414062 -0.140625 -0.507812 -0.21875 -0.59375 -0.3125 C -0.675781 -0.414062 -0.742188 -0.535156 -0.796875 -0.671875 C -0.859375 -0.804688 -0.890625 -0.945312 -0.890625 -1.09375 Z M -0.890625 -1.09375 "/></g></g></g><g fill="#ffffff" fill-opacity="1"><g transform="translate(81.682401, 15.329424)"><g><path d="M -0.890625 -1.09375 C -0.890625 -1.25 -0.859375 -1.394531 -0.796875 -1.53125 C -0.742188 -1.664062 -0.675781 -1.78125 -0.59375 -1.875 C -0.507812 -1.976562 -0.414062 -2.054688 -0.3125 -2.109375 C -0.207031 -2.171875 -0.101562 -2.203125 0 -2.203125 C 0.101562 -2.203125 0.207031 -2.21875 0.3125 -2.25 C 0.425781 -2.289062 0.53125 -2.34375 0.625 -2.40625 C 0.726562 -2.476562 0.804688 -2.5625 0.859375 -2.65625 C 0.921875 -2.757812 0.953125 -2.878906 0.953125 -3.015625 L 0.953125 -9.75 L 2.890625 -10.96875 L 2.890625 -3.015625 C 2.890625 -2.753906 2.992188 -2.550781 3.203125 -2.40625 C 3.421875 -2.269531 3.640625 -2.203125 3.859375 -2.203125 L 3.859375 0 C 3.554688 0 3.300781 -0.0234375 3.09375 -0.078125 C 2.882812 -0.128906 2.707031 -0.195312 2.5625 -0.28125 C 2.414062 -0.363281 2.296875 -0.457031 2.203125 -0.5625 C 2.109375 -0.664062 2.023438 -0.765625 1.953125 -0.859375 C 1.890625 -0.773438 1.8125 -0.679688 1.71875 -0.578125 C 1.632812 -0.472656 1.519531 -0.378906 1.375 -0.296875 C 1.226562 -0.210938 1.039062 -0.140625 0.8125 -0.078125 C 0.59375 -0.0234375 0.320312 0 0 0 C -0.101562 0 -0.207031 -0.0234375 -0.3125 -0.078125 C -0.414062 -0.140625 -0.507812 -0.21875 -0.59375 -0.3125 C -0.675781 -0.414062 -0.742188 -0.535156 -0.796875 -0.671875 C -0.859375 -0.804688 -0.890625 -0.945312 -0.890625 -1.09375 Z M -0.890625 -1.09375 "/></g></g></g><g fill="#ffffff" fill-opacity="1"><g transform="translate(85.53673, 15.329424)"><g><path d="M -0.890625 -1.09375 C -0.890625 -1.25 -0.859375 -1.394531 -0.796875 -1.53125 C -0.742188 -1.664062 -0.675781 -1.78125 -0.59375 -1.875 C -0.507812 -1.976562 -0.414062 -2.054688 -0.3125 -2.109375 C -0.207031 -2.171875 -0.101562 -2.203125 0 -2.203125 L 3.046875 -2.203125 L 3.046875 0 L 0 0 C -0.101562 0 -0.207031 -0.0234375 -0.3125 -0.078125 C -0.414062 -0.140625 -0.507812 -0.21875 -0.59375 -0.3125 C -0.675781 -0.414062 -0.742188 -0.535156 -0.796875 -0.671875 C -0.859375 -0.804688 -0.890625 -0.945312 -0.890625 -1.09375 Z M -0.890625 -1.09375 "/></g></g></g><g fill="#ffffff" fill-opacity="1"><g transform="translate(88.583631, 15.329424)"><g><path d="M -0.890625 -1.09375 C -0.890625 -1.25 -0.859375 -1.394531 -0.796875 -1.53125 C -0.742188 -1.664062 -0.675781 -1.78125 -0.59375 -1.875 C -0.507812 -1.976562 -0.414062 -2.054688 -0.3125 -2.109375 C -0.207031 -2.171875 -0.101562 -2.203125 0 -2.203125 L 3.046875 -2.203125 L 3.046875 0 L 0 0 C -0.101562 0 -0.207031 -0.0234375 -0.3125 -0.078125 C -0.414062 -0.140625 -0.507812 -0.21875 -0.59375 -0.3125 C -0.675781 -0.414062 -0.742188 -0.535156 -0.796875 -0.671875 C -0.859375 -0.804688 -0.890625 -0.945312 -0.890625 -1.09375 Z M -0.890625 -1.09375 "/></g></g></g><g fill="#ffffff" fill-opacity="1"><g transform="translate(91.630532, 15.329424)"><g><path d="M -0.890625 -1.09375 C -0.890625 -1.25 -0.859375 -1.394531 -0.796875 -1.53125 C -0.742188 -1.664062 -0.675781 -1.78125 -0.59375 -1.875 C -0.507812 -1.976562 -0.414062 -2.054688 -0.3125 -2.109375 C -0.207031 -2.171875 -0.101562 -2.203125 0 -2.203125 L 4.84375 -2.203125 L 4.84375 -3.0625 C 4.84375 -3.613281 4.597656 -3.890625 4.109375 -3.890625 L 0.96875 -3.890625 L 1.78125 -6.09375 L 4.265625 -6.09375 C 4.660156 -6.09375 5.015625 -6.019531 5.328125 -5.875 C 5.640625 -5.738281 5.898438 -5.546875 6.109375 -5.296875 C 6.328125 -5.046875 6.492188 -4.742188 6.609375 -4.390625 C 6.734375 -4.035156 6.796875 -3.644531 6.796875 -3.21875 L 6.796875 -2.203125 L 7.453125 -2.203125 L 6.625 0 L 0 0 C -0.101562 0 -0.207031 -0.0234375 -0.3125 -0.078125 C -0.414062 -0.140625 -0.507812 -0.21875 -0.59375 -0.3125 C -0.675781 -0.414062 -0.742188 -0.535156 -0.796875 -0.671875 C -0.859375 -0.804688 -0.890625 -0.945312 -0.890625 -1.09375 Z M -0.890625 -1.09375 "/></g></g></g><g fill="#ffffff" fill-opacity="1"><g transform="translate(99.389876, 15.329424)"><g/></g></g><g fill="#ffffff" fill-opacity="1"><g transform="translate(100.913327, 15.329424)"><g/></g></g><g fill="#ffffff" fill-opacity="1"><g transform="translate(102.440748, 15.329424)"><g><path d="M 4.46875 -3.890625 C 4.257812 -3.890625 4.054688 -3.878906 3.859375 -3.859375 C 3.671875 -3.847656 3.503906 -3.8125 3.359375 -3.75 C 3.222656 -3.695312 3.109375 -3.613281 3.015625 -3.5 C 2.929688 -3.382812 2.890625 -3.222656 2.890625 -3.015625 C 2.890625 -2.835938 2.953125 -2.671875 3.078125 -2.515625 C 3.210938 -2.359375 3.429688 -2.253906 3.734375 -2.203125 L 5.203125 -2.203125 L 4.828125 0 L 3.734375 0 C 2.878906 -0.0625 2.203125 -0.347656 1.703125 -0.859375 C 1.203125 -1.378906 0.953125 -2.101562 0.953125 -3.03125 C 0.953125 -3.414062 1.019531 -3.789062 1.15625 -4.15625 C 1.289062 -4.519531 1.484375 -4.847656 1.734375 -5.140625 C 1.984375 -5.429688 2.28125 -5.660156 2.625 -5.828125 C 2.976562 -6.003906 3.378906 -6.09375 3.828125 -6.09375 L 4.46875 -6.09375 C 4.632812 -6.09375 4.796875 -6.078125 4.953125 -6.046875 C 5.109375 -6.023438 5.253906 -5.988281 5.390625 -5.9375 L 5.390625 -6.25 L 7.328125 -6.703125 L 7.328125 -3.03125 C 7.328125 -2.875 7.335938 -2.742188 7.359375 -2.640625 C 7.378906 -2.535156 7.421875 -2.453125 7.484375 -2.390625 C 7.554688 -2.328125 7.65625 -2.28125 7.78125 -2.25 C 7.90625 -2.21875 8.070312 -2.203125 8.28125 -2.203125 L 8.28125 0 C 7.300781 -0.0078125 6.570312 -0.253906 6.09375 -0.734375 C 5.625 -1.222656 5.390625 -1.984375 5.390625 -3.015625 C 5.390625 -3.242188 5.300781 -3.445312 5.125 -3.625 C 4.945312 -3.800781 4.726562 -3.890625 4.46875 -3.890625 Z M 2.25 -7.609375 C 2.25 -7.804688 2.316406 -7.984375 2.453125 -8.140625 C 2.597656 -8.296875 2.773438 -8.375 2.984375 -8.375 C 3.191406 -8.375 3.367188 -8.296875 3.515625 -8.140625 C 3.671875 -7.984375 3.75 -7.804688 3.75 -7.609375 C 3.75 -7.390625 3.671875 -7.207031 3.515625 -7.0625 C 3.367188 -6.925781 3.191406 -6.859375 2.984375 -6.859375 C 2.773438 -6.859375 2.597656 -6.925781 2.453125 -7.0625 C 2.316406 -7.207031 2.25 -7.390625 2.25 -7.609375 Z M 3.984375 -7.609375 C 3.984375 -7.804688 4.050781 -7.984375 4.1875 -8.140625 C 4.332031 -8.296875 4.515625 -8.375 4.734375 -8.375 C 4.929688 -8.375 5.101562 -8.296875 5.25 -8.140625 C 5.40625 -7.984375 5.484375 -7.804688 5.484375 -7.609375 C 5.484375 -7.390625 5.40625 -7.207031 5.25 -7.0625 C 5.101562 -6.925781 4.929688 -6.859375 4.734375 -6.859375 C 4.515625 -6.859375 4.332031 -6.925781 4.1875 -7.0625 C 4.050781 -7.207031 3.984375 -7.390625 3.984375 -7.609375 Z M 3.984375 -7.609375 "/></g></g></g><g fill="#ffffff" fill-opacity="1"><g transform="translate(110.728319, 15.329424)"><g><path d="M -0.890625 -1.09375 C -0.890625 -1.25 -0.859375 -1.394531 -0.796875 -1.53125 C -0.742188 -1.664062 -0.675781 -1.78125 -0.59375 -1.875 C -0.507812 -1.976562 -0.414062 -2.054688 -0.3125 -2.109375 C -0.207031 -2.171875 -0.101562 -2.203125 0 -2.203125 L 3.046875 -2.203125 L 3.046875 0 L 0 0 C -0.101562 0 -0.207031 -0.0234375 -0.3125 -0.078125 C -0.414062 -0.140625 -0.507812 -0.21875 -0.59375 -0.3125 C -0.675781 -0.414062 -0.742188 -0.535156 -0.796875 -0.671875 C -0.859375 -0.804688 -0.890625 -0.945312 -0.890625 -1.09375 Z M -0.890625 -1.09375 "/></g></g></g><g fill="#ffffff" fill-opacity="1"><g transform="translate(113.77522, 15.329424)"><g><path d="M -0.890625 -1.09375 C -0.890625 -1.25 -0.859375 -1.394531 -0.796875 -1.53125 C -0.742188 -1.664062 -0.675781 -1.78125 -0.59375 -1.875 C -0.507812 -1.976562 -0.414062 -2.054688 -0.3125 -2.109375 C -0.207031 -2.171875 -0.101562 -2.203125 0 -2.203125 L 3.046875 -2.203125 L 3.046875 0 L 0 0 C -0.101562 0 -0.207031 -0.0234375 -0.3125 -0.078125 C -0.414062 -0.140625 -0.507812 -0.21875 -0.59375 -0.3125 C -0.675781 -0.414062 -0.742188 -0.535156 -0.796875 -0.671875 C -0.859375 -0.804688 -0.890625 -0.945312 -0.890625 -1.09375 Z M -0.890625 -1.09375 "/></g></g></g><g fill="#ffffff" fill-opacity="1"><g transform="translate(116.822122, 15.329424)"><g><path d="M -0.890625 -1.09375 C -0.890625 -1.25 -0.859375 -1.394531 -0.796875 -1.53125 C -0.742188 -1.664062 -0.675781 -1.78125 -0.59375 -1.875 C -0.507812 -1.976562 -0.414062 -2.054688 -0.3125 -2.109375 C -0.207031 -2.171875 -0.101562 -2.203125 0 -2.203125 L 3.046875 -2.203125 L 3.046875 0 L 0 0 C -0.101562 0 -0.207031 -0.0234375 -0.3125 -0.078125 C -0.414062 -0.140625 -0.507812 -0.21875 -0.59375 -0.3125 C -0.675781 -0.414062 -0.742188 -0.535156 -0.796875 -0.671875 C -0.859375 -0.804688 -0.890625 -0.945312 -0.890625 -1.09375 Z M -0.890625 -1.09375 "/></g></g></g><g fill="#ffffff" fill-opacity="1"><g transform="translate(119.869023, 15.329424)"><g><path d="M -0.890625 -1.09375 C -0.890625 -1.25 -0.859375 -1.394531 -0.796875 -1.53125 C -0.742188 -1.664062 -0.675781 -1.78125 -0.59375 -1.875 C -0.507812 -1.976562 -0.414062 -2.054688 -0.3125 -2.109375 C -0.207031 -2.171875 -0.101562 -2.203125 0 -2.203125 L 4.328125 -2.203125 C 4.328125 -2.378906 4.296875 -2.535156 4.234375 -2.671875 C 4.171875 -2.804688 4.101562 -2.925781 4.03125 -3.03125 C 3.957031 -3.132812 3.882812 -3.21875 3.8125 -3.28125 C 3.738281 -3.34375 3.691406 -3.390625 3.671875 -3.421875 L 0.609375 -6.46875 L 0.609375 -7.328125 L 5.5625 -10.96875 L 6.421875 -9.71875 L 6.421875 -8.984375 L 3.328125 -6.71875 L 5.640625 -4.5625 C 5.816406 -4.382812 5.957031 -4.21875 6.0625 -4.0625 C 6.164062 -3.914062 6.242188 -3.753906 6.296875 -3.578125 C 6.359375 -3.398438 6.394531 -3.203125 6.40625 -2.984375 C 6.414062 -2.765625 6.421875 -2.503906 6.421875 -2.203125 L 6.421875 0 L 0 0 C -0.101562 0 -0.207031 -0.0234375 -0.3125 -0.078125 C -0.414062 -0.140625 -0.507812 -0.21875 -0.59375 -0.3125 C -0.675781 -0.414062 -0.742188 -0.535156 -0.796875 -0.671875 C -0.859375 -0.804688 -0.890625 -0.945312 -0.890625 -1.09375 Z M -0.890625 -1.09375 "/></g></g></g><g fill="#ffffff" fill-opacity="1"><g transform="translate(126.952969, 15.329424)"><g><path d="M 3.078125 0 L 3.078125 0.703125 C 3.078125 1.609375 2.847656 2.304688 2.390625 2.796875 C 1.941406 3.296875 1.351562 3.546875 0.625 3.546875 L -0.453125 3.546875 L -0.453125 1.359375 L 0.609375 1.359375 C 0.773438 1.359375 0.90625 1.296875 1 1.171875 C 1.09375 1.054688 1.140625 0.898438 1.140625 0.703125 L 1.140625 -4.5 L 3.078125 -5.71875 L 3.078125 -2.203125 L 4.03125 -2.203125 L 4.03125 0 Z M 3.078125 0 "/></g></g></g><g fill="#ffffff" fill-opacity="1"><g transform="translate(130.990112, 15.329424)"><g><path d="M -0.890625 -1.09375 C -0.890625 -1.25 -0.859375 -1.394531 -0.796875 -1.53125 C -0.742188 -1.664062 -0.675781 -1.78125 -0.59375 -1.875 C -0.507812 -1.976562 -0.414062 -2.054688 -0.3125 -2.109375 C -0.207031 -2.171875 -0.101562 -2.203125 0 -2.203125 L 3.046875 -2.203125 L 3.046875 0 L 0 0 C -0.101562 0 -0.207031 -0.0234375 -0.3125 -0.078125 C -0.414062 -0.140625 -0.507812 -0.21875 -0.59375 -0.3125 C -0.675781 -0.414062 -0.742188 -0.535156 -0.796875 -0.671875 C -0.859375 -0.804688 -0.890625 -0.945312 -0.890625 -1.09375 Z M -0.890625 -1.09375 "/></g></g></g><g fill="#ffffff" fill-opacity="1"><g transform="translate(134.037013, 15.329424)"><g><path d="M -0.890625 -1.09375 C -0.890625 -1.25 -0.859375 -1.394531 -0.796875 -1.53125 C -0.742188 -1.664062 -0.675781 -1.78125 -0.59375 -1.875 C -0.507812 -1.976562 -0.414062 -2.054688 -0.3125 -2.109375 C -0.207031 -2.171875 -0.101562 -2.203125 0 -2.203125 L 3.046875 -2.203125 L 3.046875 0 L 0 0 C -0.101562 0 -0.207031 -0.0234375 -0.3125 -0.078125 C -0.414062 -0.140625 -0.507812 -0.21875 -0.59375 -0.3125 C -0.675781 -0.414062 -0.742188 -0.535156 -0.796875 -0.671875 C -0.859375 -0.804688 -0.890625 -0.945312 -0.890625 -1.09375 Z M -0.890625 -1.09375 "/></g></g></g><g fill="#ffffff" fill-opacity="1"><g transform="translate(137.083914, 15.329424)"><g><path d="M -0.890625 -1.09375 C -0.890625 -1.25 -0.859375 -1.394531 -0.796875 -1.53125 C -0.742188 -1.664062 -0.675781 -1.78125 -0.59375 -1.875 C -0.507812 -1.976562 -0.414062 -2.054688 -0.3125 -2.109375 C -0.207031 -2.171875 -0.101562 -2.203125 0 -2.203125 L 3.046875 -2.203125 L 3.046875 0 L 0 0 C -0.101562 0 -0.207031 -0.0234375 -0.3125 -0.078125 C -0.414062 -0.140625 -0.507812 -0.21875 -0.59375 -0.3125 C -0.675781 -0.414062 -0.742188 -0.535156 -0.796875 -0.671875 C -0.859375 -0.804688 -0.890625 -0.945312 -0.890625 -1.09375 Z M -0.890625 -1.09375 "/></g></g></g><g fill="#ffffff" fill-opacity="1"><g transform="translate(140.130815, 15.329424)"><g><path d="M -0.890625 -1.09375 C -0.890625 -1.25 -0.859375 -1.394531 -0.796875 -1.53125 C -0.742188 -1.664062 -0.675781 -1.78125 -0.59375 -1.875 C -0.507812 -1.976562 -0.414062 -2.054688 -0.3125 -2.109375 C -0.207031 -2.171875 -0.101562 -2.203125 0 -2.203125 L 3.046875 -2.203125 L 3.046875 0 L 0 0 C -0.101562 0 -0.207031 -0.0234375 -0.3125 -0.078125 C -0.414062 -0.140625 -0.507812 -0.21875 -0.59375 -0.3125 C -0.675781 -0.414062 -0.742188 -0.535156 -0.796875 -0.671875 C -0.859375 -0.804688 -0.890625 -0.945312 -0.890625 -1.09375 Z M -0.890625 -1.09375 "/></g></g></g><g fill="#ffffff" fill-opacity="1"><g transform="translate(143.177717, 15.329424)"><g><path d="M -0.890625 -1.09375 C -0.890625 -1.25 -0.859375 -1.394531 -0.796875 -1.53125 C -0.742188 -1.664062 -0.675781 -1.78125 -0.59375 -1.875 C -0.507812 -1.976562 -0.414062 -2.054688 -0.3125 -2.109375 C -0.207031 -2.171875 -0.101562 -2.203125 0 -2.203125 C 0.113281 -2.210938 0.226562 -2.222656 0.34375 -2.234375 C 0.457031 -2.253906 0.5625 -2.285156 0.65625 -2.328125 C 0.75 -2.378906 0.820312 -2.457031 0.875 -2.5625 C 0.925781 -2.664062 0.953125 -2.804688 0.953125 -2.984375 L 0.953125 -4.46875 L 2.890625 -5.71875 L 2.890625 -3.328125 C 2.890625 -3.179688 2.890625 -3.039062 2.890625 -2.90625 C 2.898438 -2.78125 2.925781 -2.660156 2.96875 -2.546875 C 3.019531 -2.441406 3.097656 -2.359375 3.203125 -2.296875 C 3.304688 -2.234375 3.445312 -2.203125 3.625 -2.203125 C 4.0625 -2.203125 4.28125 -2.460938 4.28125 -2.984375 L 4.28125 -4.5 L 6.21875 -5.71875 L 6.21875 -3.203125 C 6.21875 -3.078125 6.222656 -2.953125 6.234375 -2.828125 C 6.242188 -2.710938 6.269531 -2.609375 6.3125 -2.515625 C 6.363281 -2.421875 6.429688 -2.34375 6.515625 -2.28125 C 6.609375 -2.226562 6.742188 -2.203125 6.921875 -2.203125 C 7.148438 -2.203125 7.316406 -2.289062 7.421875 -2.46875 C 7.523438 -2.65625 7.578125 -2.910156 7.578125 -3.234375 L 7.578125 -4.875 L 9.5 -6.09375 L 9.5 -2.8125 C 9.5 -1.882812 9.269531 -1.179688 8.8125 -0.703125 C 8.351562 -0.234375 7.703125 0 6.859375 0 C 6.441406 0 6.117188 -0.078125 5.890625 -0.234375 C 5.671875 -0.398438 5.460938 -0.585938 5.265625 -0.796875 C 5.191406 -0.710938 5.109375 -0.625 5.015625 -0.53125 C 4.921875 -0.4375 4.8125 -0.351562 4.6875 -0.28125 C 4.570312 -0.207031 4.425781 -0.140625 4.25 -0.078125 C 4.070312 -0.0234375 3.863281 0 3.625 0 C 3.382812 0 3.175781 -0.0234375 3 -0.078125 C 2.832031 -0.128906 2.6875 -0.191406 2.5625 -0.265625 C 2.445312 -0.335938 2.34375 -0.421875 2.25 -0.515625 C 2.15625 -0.617188 2.054688 -0.71875 1.953125 -0.8125 C 1.835938 -0.71875 1.734375 -0.617188 1.640625 -0.515625 C 1.554688 -0.421875 1.445312 -0.335938 1.3125 -0.265625 C 1.1875 -0.191406 1.019531 -0.128906 0.8125 -0.078125 C 0.601562 -0.0234375 0.332031 0 0 0 C -0.101562 0 -0.207031 -0.0234375 -0.3125 -0.078125 C -0.414062 -0.140625 -0.507812 -0.21875 -0.59375 -0.3125 C -0.675781 -0.414062 -0.742188 -0.535156 -0.796875 -0.671875 C -0.859375 -0.804688 -0.890625 -0.945312 -0.890625 -1.09375 Z M 5.34375 -7.609375 C 5.34375 -7.804688 5.410156 -7.984375 5.546875 -8.140625 C 5.679688 -8.296875 5.863281 -8.375 6.09375 -8.375 C 6.289062 -8.375 6.460938 -8.296875 6.609375 -8.140625 C 6.765625 -7.984375 6.84375 -7.804688 6.84375 -7.609375 C 6.84375 -7.390625 6.765625 -7.207031 6.609375 -7.0625 C 6.460938 -6.925781 6.289062 -6.859375 6.09375 -6.859375 C 5.863281 -6.859375 5.679688 -6.925781 5.546875 -7.0625 C 5.410156 -7.207031 5.34375 -7.390625 5.34375 -7.609375 Z M 3.59375 -7.609375 C 3.59375 -7.804688 3.660156 -7.984375 3.796875 -8.140625 C 3.941406 -8.296875 4.117188 -8.375 4.328125 -8.375 C 4.535156 -8.375 4.710938 -8.296875 4.859375 -8.140625 C 5.015625 -7.984375 5.09375 -7.804688 5.09375 -7.609375 C 5.09375 -7.390625 5.015625 -7.207031 4.859375 -7.0625 C 4.710938 -6.925781 4.535156 -6.859375 4.328125 -6.859375 C 4.117188 -6.859375 3.941406 -6.925781 3.796875 -7.0625 C 3.660156 -7.207031 3.59375 -7.390625 3.59375 -7.609375 Z M 4.484375 -9.109375 C 4.484375 -9.328125 4.550781 -9.507812 4.6875 -9.65625 C 4.832031 -9.800781 5.015625 -9.875 5.234375 -9.875 C 5.429688 -9.875 5.609375 -9.800781 5.765625 -9.65625 C 5.921875 -9.507812 6 -9.328125 6 -9.109375 C 6 -8.898438 5.921875 -8.722656 5.765625 -8.578125 C 5.609375 -8.441406 5.429688 -8.375 5.234375 -8.375 C 5.015625 -8.375 4.832031 -8.441406 4.6875 -8.578125 C 4.550781 -8.722656 4.484375 -8.898438 4.484375 -9.109375 Z M 4.484375 -9.109375 "/></g></g></g></g></g><g transform="matrix(1, 0, 0, 1, 52, 26)"><g clip-path="url(#6a563be81f)"><g clip-path="url(#7895ee1df6)"><g fill="#ffffff" fill-opacity="1"><g transform="translate(0.254201, 7.062625)"><g><path d="M 2.171875 -2.28125 C 2.335938 -2.28125 2.484375 -2.25 2.609375 -2.1875 C 2.742188 -2.125 2.859375 -2.035156 2.953125 -1.921875 C 3.046875 -1.816406 3.117188 -1.695312 3.171875 -1.5625 C 3.222656 -1.425781 3.25 -1.28125 3.25 -1.125 C 3.25 -0.957031 3.21875 -0.804688 3.15625 -0.671875 C 3.101562 -0.535156 3.023438 -0.414062 2.921875 -0.3125 C 2.828125 -0.21875 2.703125 -0.140625 2.546875 -0.078125 C 2.398438 -0.0234375 2.234375 0 2.046875 0 L 1.296875 0 C 1.242188 0.0078125 1.191406 0.03125 1.140625 0.0625 C 1.097656 0.101562 1.0625 0.148438 1.03125 0.203125 C 1 0.265625 0.972656 0.328125 0.953125 0.390625 C 0.929688 0.460938 0.921875 0.53125 0.921875 0.59375 L 0.921875 1.9375 L 0.421875 1.9375 L 0.421875 0.59375 C 0.421875 0.3125 0.476562 0.0703125 0.59375 -0.125 C 0.71875 -0.332031 0.898438 -0.46875 1.140625 -0.53125 L 1.140625 -1.125 C 1.140625 -1.28125 1.164062 -1.425781 1.21875 -1.5625 C 1.269531 -1.707031 1.34375 -1.832031 1.4375 -1.9375 C 1.53125 -2.039062 1.640625 -2.125 1.765625 -2.1875 C 1.890625 -2.25 2.023438 -2.28125 2.171875 -2.28125 Z M 2.046875 -0.53125 C 2.265625 -0.53125 2.429688 -0.582031 2.546875 -0.6875 C 2.671875 -0.800781 2.734375 -0.945312 2.734375 -1.125 C 2.734375 -1.289062 2.679688 -1.4375 2.578125 -1.5625 C 2.472656 -1.6875 2.335938 -1.75 2.171875 -1.75 C 2.097656 -1.75 2.03125 -1.734375 1.96875 -1.703125 C 1.90625 -1.671875 1.847656 -1.625 1.796875 -1.5625 C 1.753906 -1.507812 1.71875 -1.441406 1.6875 -1.359375 C 1.664062 -1.285156 1.65625 -1.207031 1.65625 -1.125 L 1.65625 -0.53125 Z M 2.046875 -0.53125 "/></g></g></g></g><g fill="#ffffff" fill-opacity="1"><g transform="translate(3.919102, 7.062625)"><g><path d="M 1.34375 0 C 1.007812 0 0.769531 -0.09375 0.625 -0.28125 C 0.488281 -0.46875 0.421875 -0.742188 0.421875 -1.109375 L 0.421875 -4.203125 L 0.921875 -4.53125 L 0.921875 -1.109375 C 0.921875 -0.921875 0.953125 -0.773438 1.015625 -0.671875 C 1.085938 -0.578125 1.195312 -0.53125 1.34375 -0.53125 Z M 1.34375 0 "/></g></g></g><g fill="#ffffff" fill-opacity="1"><g transform="translate(5.262899, 7.062625)"><g><path d="M -0.28125 -0.25 C -0.28125 -0.332031 -0.25 -0.398438 -0.1875 -0.453125 C -0.132812 -0.503906 -0.0703125 -0.53125 0 -0.53125 C 0.175781 -0.53125 0.378906 -0.539062 0.609375 -0.5625 C 0.835938 -0.582031 1.070312 -0.625 1.3125 -0.6875 C 1.1875 -0.832031 1.054688 -0.960938 0.921875 -1.078125 C 0.796875 -1.191406 0.648438 -1.253906 0.484375 -1.265625 L 0.296875 -1.65625 C 0.390625 -1.800781 0.503906 -1.925781 0.640625 -2.03125 C 0.785156 -2.132812 0.929688 -2.21875 1.078125 -2.28125 C 1.234375 -2.351562 1.378906 -2.40625 1.515625 -2.4375 C 1.660156 -2.46875 1.78125 -2.484375 1.875 -2.484375 C 2.019531 -2.484375 2.148438 -2.453125 2.265625 -2.390625 C 2.390625 -2.335938 2.492188 -2.265625 2.578125 -2.171875 C 2.660156 -2.085938 2.722656 -1.984375 2.765625 -1.859375 C 2.816406 -1.742188 2.84375 -1.617188 2.84375 -1.484375 C 2.84375 -1.273438 2.785156 -1.09375 2.671875 -0.9375 C 2.566406 -0.78125 2.425781 -0.644531 2.25 -0.53125 L 3.1875 -0.53125 L 3.1875 0 L 2.3125 0 C 2.195312 0 2.085938 -0.0234375 1.984375 -0.078125 C 1.890625 -0.128906 1.796875 -0.195312 1.703125 -0.28125 C 1.398438 -0.164062 1.09375 -0.0859375 0.78125 -0.046875 C 0.476562 -0.015625 0.21875 0 0 0 C -0.0703125 0 -0.132812 -0.0195312 -0.1875 -0.0625 C -0.25 -0.113281 -0.28125 -0.175781 -0.28125 -0.25 Z M 1.84375 -0.859375 C 1.988281 -0.929688 2.109375 -1.019531 2.203125 -1.125 C 2.296875 -1.226562 2.34375 -1.347656 2.34375 -1.484375 C 2.34375 -1.609375 2.300781 -1.71875 2.21875 -1.8125 C 2.132812 -1.90625 2.019531 -1.953125 1.875 -1.953125 C 1.820312 -1.953125 1.753906 -1.941406 1.671875 -1.921875 C 1.597656 -1.910156 1.519531 -1.894531 1.4375 -1.875 C 1.351562 -1.851562 1.269531 -1.820312 1.1875 -1.78125 C 1.101562 -1.75 1.03125 -1.710938 0.96875 -1.671875 C 1.019531 -1.648438 1.078125 -1.617188 1.140625 -1.578125 C 1.203125 -1.535156 1.265625 -1.484375 1.328125 -1.421875 C 1.398438 -1.359375 1.472656 -1.28125 1.546875 -1.1875 C 1.628906 -1.09375 1.726562 -0.984375 1.84375 -0.859375 Z M 1.84375 -0.859375 "/></g></g></g><g fill="#ffffff" fill-opacity="1"><g transform="translate(8.452006, 7.062625)"><g><path d="M 1.015625 -4.53125 L 1.015625 -1.109375 C 1.015625 -0.734375 0.929688 -0.453125 0.765625 -0.265625 C 0.597656 -0.0859375 0.34375 0 0 0 C -0.0703125 0 -0.132812 -0.0195312 -0.1875 -0.0625 C -0.25 -0.113281 -0.28125 -0.175781 -0.28125 -0.25 C -0.28125 -0.332031 -0.25 -0.398438 -0.1875 -0.453125 C -0.132812 -0.503906 -0.0703125 -0.53125 0 -0.53125 C 0.125 -0.53125 0.21875 -0.546875 0.28125 -0.578125 C 0.351562 -0.617188 0.40625 -0.671875 0.4375 -0.734375 C 0.46875 -0.804688 0.488281 -0.890625 0.5 -0.984375 C 0.507812 -1.078125 0.515625 -1.1875 0.515625 -1.3125 L 0.515625 -4.203125 Z M 1.015625 -4.53125 "/></g></g></g><g fill="#ffffff" fill-opacity="1"><g transform="translate(9.879388, 7.062625)"><g><path d="M 0.921875 0 L 0.421875 0 L 0.421875 -4.203125 L 0.921875 -4.53125 Z M 0.921875 0 "/></g></g></g><g fill="#ffffff" fill-opacity="1"><g transform="translate(11.223185, 7.062625)"><g/></g></g><g fill="#ffffff" fill-opacity="1"><g transform="translate(11.866151, 7.062625)"><g><path d="M 1.578125 0 C 1.210938 0 0.925781 -0.0703125 0.71875 -0.21875 C 0.519531 -0.363281 0.421875 -0.566406 0.421875 -0.828125 C 0.421875 -0.953125 0.429688 -1.0625 0.453125 -1.15625 C 0.472656 -1.25 0.503906 -1.335938 0.546875 -1.421875 C 0.597656 -1.515625 0.65625 -1.597656 0.71875 -1.671875 C 0.789062 -1.753906 0.863281 -1.847656 0.9375 -1.953125 L 1.125 -1.84375 C 1.050781 -1.738281 0.976562 -1.617188 0.90625 -1.484375 C 0.84375 -1.359375 0.8125 -1.226562 0.8125 -1.09375 C 0.8125 -1 0.832031 -0.914062 0.875 -0.84375 C 0.914062 -0.78125 0.972656 -0.722656 1.046875 -0.671875 C 1.117188 -0.628906 1.195312 -0.59375 1.28125 -0.5625 C 1.375 -0.539062 1.460938 -0.53125 1.546875 -0.53125 L 2.8125 -0.53125 L 3.015625 -0.453125 C 2.953125 -0.523438 2.898438 -0.625 2.859375 -0.75 C 2.828125 -0.882812 2.8125 -1.007812 2.8125 -1.125 C 2.8125 -1.28125 2.835938 -1.425781 2.890625 -1.5625 C 2.941406 -1.695312 3.015625 -1.816406 3.109375 -1.921875 C 3.203125 -2.035156 3.3125 -2.125 3.4375 -2.1875 C 3.570312 -2.25 3.722656 -2.28125 3.890625 -2.28125 C 4.035156 -2.28125 4.171875 -2.25 4.296875 -2.1875 C 4.421875 -2.125 4.53125 -2.039062 4.625 -1.9375 C 4.71875 -1.832031 4.789062 -1.707031 4.84375 -1.5625 C 4.894531 -1.425781 4.921875 -1.28125 4.921875 -1.125 L 4.921875 -0.53125 L 5.34375 -0.53125 L 5.34375 0 Z M 4.40625 -0.53125 L 4.40625 -1.125 C 4.40625 -1.207031 4.390625 -1.285156 4.359375 -1.359375 C 4.335938 -1.441406 4.300781 -1.507812 4.25 -1.5625 C 4.207031 -1.625 4.15625 -1.671875 4.09375 -1.703125 C 4.03125 -1.734375 3.960938 -1.75 3.890625 -1.75 C 3.722656 -1.75 3.585938 -1.6875 3.484375 -1.5625 C 3.378906 -1.4375 3.328125 -1.289062 3.328125 -1.125 C 3.328125 -0.945312 3.382812 -0.800781 3.5 -0.6875 C 3.625 -0.582031 3.796875 -0.53125 4.015625 -0.53125 Z M 3.65625 -2.828125 C 3.65625 -2.898438 3.675781 -2.957031 3.71875 -3 C 3.757812 -3.050781 3.816406 -3.078125 3.890625 -3.078125 C 3.960938 -3.078125 4.019531 -3.050781 4.0625 -3 C 4.113281 -2.957031 4.140625 -2.898438 4.140625 -2.828125 C 4.140625 -2.765625 4.113281 -2.707031 4.0625 -2.65625 C 4.019531 -2.613281 3.960938 -2.59375 3.890625 -2.59375 C 3.816406 -2.59375 3.757812 -2.613281 3.71875 -2.65625 C 3.675781 -2.707031 3.65625 -2.765625 3.65625 -2.828125 Z M 3.65625 -2.828125 "/></g></g></g><g fill="#ffffff" fill-opacity="1"><g transform="translate(17.209189, 7.062625)"><g><path d="M -0.28125 -0.25 C -0.28125 -0.332031 -0.25 -0.398438 -0.1875 -0.453125 C -0.132812 -0.503906 -0.0703125 -0.53125 0 -0.53125 C 0.1875 -0.53125 0.316406 -0.582031 0.390625 -0.6875 C 0.472656 -0.789062 0.515625 -0.957031 0.515625 -1.1875 L 0.515625 -1.765625 L 1.03125 -2.09375 C 1.019531 -1.90625 1.015625 -1.738281 1.015625 -1.59375 L 1.015625 -1.015625 C 1.015625 -0.878906 1.054688 -0.765625 1.140625 -0.671875 C 1.222656 -0.585938 1.335938 -0.539062 1.484375 -0.53125 L 1.484375 0 C 1.421875 0 1.351562 -0.00390625 1.28125 -0.015625 C 1.21875 -0.0234375 1.15625 -0.0390625 1.09375 -0.0625 C 1.03125 -0.09375 0.96875 -0.128906 0.90625 -0.171875 C 0.851562 -0.222656 0.8125 -0.28125 0.78125 -0.34375 C 0.625 -0.113281 0.363281 0 0 0 C -0.0703125 0 -0.132812 -0.0195312 -0.1875 -0.0625 C -0.25 -0.113281 -0.28125 -0.175781 -0.28125 -0.25 Z M 0.171875 0.5625 C 0.171875 0.488281 0.191406 0.425781 0.234375 0.375 C 0.285156 0.332031 0.34375 0.3125 0.40625 0.3125 C 0.476562 0.3125 0.535156 0.332031 0.578125 0.375 C 0.628906 0.425781 0.65625 0.488281 0.65625 0.5625 C 0.65625 0.625 0.628906 0.675781 0.578125 0.71875 C 0.535156 0.769531 0.476562 0.796875 0.40625 0.796875 C 0.34375 0.796875 0.285156 0.769531 0.234375 0.71875 C 0.191406 0.675781 0.171875 0.625 0.171875 0.5625 Z M 0.78125 0.5625 C 0.78125 0.488281 0.800781 0.425781 0.84375 0.375 C 0.894531 0.332031 0.953125 0.3125 1.015625 0.3125 C 1.085938 0.3125 1.144531 0.332031 1.1875 0.375 C 1.238281 0.425781 1.265625 0.488281 1.265625 0.5625 C 1.265625 0.625 1.238281 0.675781 1.1875 0.71875 C 1.144531 0.769531 1.085938 0.796875 1.015625 0.796875 C 0.953125 0.796875 0.894531 0.769531 0.84375 0.71875 C 0.800781 0.675781 0.78125 0.625 0.78125 0.5625 Z M 0.78125 0.5625 "/></g></g></g><g fill="#ffffff" fill-opacity="1"><g transform="translate(18.700869, 7.062625)"><g><path d="M -0.28125 -0.25 C -0.28125 -0.332031 -0.25 -0.398438 -0.1875 -0.453125 C -0.132812 -0.503906 -0.0703125 -0.53125 0 -0.53125 L 1.28125 -0.53125 L 1.28125 0 L 0 0 C -0.0703125 0 -0.132812 -0.0195312 -0.1875 -0.0625 C -0.25 -0.113281 -0.28125 -0.175781 -0.28125 -0.25 Z M -0.28125 -0.25 "/></g></g></g><g fill="#ffffff" fill-opacity="1"><g transform="translate(19.986799, 7.062625)"><g><path d="M -0.28125 -0.25 C -0.28125 -0.332031 -0.25 -0.398438 -0.1875 -0.453125 C -0.132812 -0.503906 -0.0703125 -0.53125 0 -0.53125 L 1.28125 -0.53125 L 1.28125 0 L 0 0 C -0.0703125 0 -0.132812 -0.0195312 -0.1875 -0.0625 C -0.25 -0.113281 -0.28125 -0.175781 -0.28125 -0.25 Z M -0.28125 -0.25 "/></g></g></g><g fill="#ffffff" fill-opacity="1"><g transform="translate(21.272728, 7.062625)"><g><path d="M 0 0 C -0.0703125 0 -0.132812 -0.0195312 -0.1875 -0.0625 C -0.25 -0.113281 -0.28125 -0.175781 -0.28125 -0.25 C -0.28125 -0.332031 -0.25 -0.398438 -0.1875 -0.453125 C -0.132812 -0.503906 -0.0703125 -0.53125 0 -0.53125 L 0.421875 -0.53125 L 0.421875 -4.203125 L 0.921875 -4.53125 L 0.921875 -1.34375 L 0.96875 -1.34375 C 1.050781 -1.46875 1.140625 -1.585938 1.234375 -1.703125 C 1.335938 -1.816406 1.445312 -1.914062 1.5625 -2 C 1.6875 -2.082031 1.816406 -2.148438 1.953125 -2.203125 C 2.085938 -2.253906 2.234375 -2.28125 2.390625 -2.28125 C 2.578125 -2.28125 2.75 -2.253906 2.90625 -2.203125 C 3.0625 -2.160156 3.195312 -2.09375 3.3125 -2 C 3.425781 -1.90625 3.515625 -1.785156 3.578125 -1.640625 C 3.640625 -1.492188 3.671875 -1.316406 3.671875 -1.109375 L 3.671875 -0.53125 L 4.078125 -0.53125 L 4.078125 0 Z M 3.15625 -0.53125 L 3.15625 -0.9375 C 3.15625 -1.195312 3.082031 -1.394531 2.9375 -1.53125 C 2.789062 -1.675781 2.597656 -1.75 2.359375 -1.75 C 2.179688 -1.75 2.019531 -1.707031 1.875 -1.625 C 1.726562 -1.550781 1.59375 -1.457031 1.46875 -1.34375 C 1.34375 -1.226562 1.234375 -1.097656 1.140625 -0.953125 C 1.054688 -0.804688 0.984375 -0.664062 0.921875 -0.53125 Z M 2 -2.828125 C 2 -2.898438 2.019531 -2.957031 2.0625 -3 C 2.101562 -3.050781 2.160156 -3.078125 2.234375 -3.078125 C 2.304688 -3.078125 2.363281 -3.050781 2.40625 -3 C 2.457031 -2.957031 2.484375 -2.898438 2.484375 -2.828125 C 2.484375 -2.765625 2.457031 -2.707031 2.40625 -2.65625 C 2.363281 -2.613281 2.304688 -2.59375 2.234375 -2.59375 C 2.160156 -2.59375 2.101562 -2.613281 2.0625 -2.65625 C 2.019531 -2.707031 2 -2.765625 2 -2.828125 Z M 2 -2.828125 "/></g></g></g><g fill="#ffffff" fill-opacity="1"><g transform="translate(25.361986, 7.062625)"><g><path d="M -0.28125 -0.25 C -0.28125 -0.332031 -0.25 -0.398438 -0.1875 -0.453125 C -0.132812 -0.503906 -0.0703125 -0.53125 0 -0.53125 L 1.28125 -0.53125 L 1.28125 0 L 0 0 C -0.0703125 0 -0.132812 -0.0195312 -0.1875 -0.0625 C -0.25 -0.113281 -0.28125 -0.175781 -0.28125 -0.25 Z M -0.28125 -0.25 "/></g></g></g><g fill="#ffffff" fill-opacity="1"><g transform="translate(26.647916, 7.062625)"><g><path d="M -0.28125 -0.25 C -0.28125 -0.332031 -0.25 -0.398438 -0.1875 -0.453125 C -0.132812 -0.503906 -0.0703125 -0.53125 0 -0.53125 L 1.28125 -0.53125 L 1.28125 0 L 0 0 C -0.0703125 0 -0.132812 -0.0195312 -0.1875 -0.0625 C -0.25 -0.113281 -0.28125 -0.175781 -0.28125 -0.25 Z M -0.28125 -0.25 "/></g></g></g><g fill="#ffffff" fill-opacity="1"><g transform="translate(27.933846, 7.062625)"><g><path d="M -0.28125 -0.25 C -0.28125 -0.332031 -0.25 -0.398438 -0.1875 -0.453125 C -0.132812 -0.503906 -0.0703125 -0.53125 0 -0.53125 C 0.1875 -0.53125 0.316406 -0.582031 0.390625 -0.6875 C 0.472656 -0.789062 0.515625 -0.957031 0.515625 -1.1875 L 0.515625 -1.765625 L 1.03125 -2.09375 C 1.019531 -1.90625 1.015625 -1.738281 1.015625 -1.59375 L 1.015625 -1.015625 C 1.015625 -0.878906 1.054688 -0.765625 1.140625 -0.671875 C 1.222656 -0.585938 1.335938 -0.539062 1.484375 -0.53125 L 1.484375 0 C 1.421875 0 1.351562 -0.00390625 1.28125 -0.015625 C 1.21875 -0.0234375 1.15625 -0.0390625 1.09375 -0.0625 C 1.03125 -0.09375 0.96875 -0.128906 0.90625 -0.171875 C 0.851562 -0.222656 0.8125 -0.28125 0.78125 -0.34375 C 0.625 -0.113281 0.363281 0 0 0 C -0.0703125 0 -0.132812 -0.0195312 -0.1875 -0.0625 C -0.25 -0.113281 -0.28125 -0.175781 -0.28125 -0.25 Z M 0.484375 -2.640625 C 0.484375 -2.710938 0.503906 -2.769531 0.546875 -2.8125 C 0.585938 -2.863281 0.644531 -2.890625 0.71875 -2.890625 C 0.789062 -2.890625 0.847656 -2.863281 0.890625 -2.8125 C 0.941406 -2.769531 0.96875 -2.710938 0.96875 -2.640625 C 0.96875 -2.578125 0.941406 -2.519531 0.890625 -2.46875 C 0.847656 -2.425781 0.789062 -2.40625 0.71875 -2.40625 C 0.644531 -2.40625 0.585938 -2.425781 0.546875 -2.46875 C 0.503906 -2.519531 0.484375 -2.578125 0.484375 -2.640625 Z M 0.484375 -2.640625 "/></g></g></g><g fill="#ffffff" fill-opacity="1"><g transform="translate(29.425525, 7.062625)"><g><path d="M -0.28125 -0.25 C -0.28125 -0.332031 -0.25 -0.398438 -0.1875 -0.453125 C -0.132812 -0.503906 -0.0703125 -0.53125 0 -0.53125 C 0.1875 -0.53125 0.316406 -0.582031 0.390625 -0.6875 C 0.472656 -0.789062 0.515625 -0.957031 0.515625 -1.1875 L 0.515625 -1.765625 L 1.03125 -2.09375 C 1.019531 -1.90625 1.015625 -1.738281 1.015625 -1.59375 L 1.015625 -1.015625 C 1.015625 -0.878906 1.054688 -0.765625 1.140625 -0.671875 C 1.222656 -0.585938 1.335938 -0.539062 1.484375 -0.53125 L 1.484375 0 C 1.421875 0 1.351562 -0.00390625 1.28125 -0.015625 C 1.21875 -0.0234375 1.15625 -0.0390625 1.09375 -0.0625 C 1.03125 -0.09375 0.96875 -0.128906 0.90625 -0.171875 C 0.851562 -0.222656 0.8125 -0.28125 0.78125 -0.34375 C 0.625 -0.113281 0.363281 0 0 0 C -0.0703125 0 -0.132812 -0.0195312 -0.1875 -0.0625 C -0.25 -0.113281 -0.28125 -0.175781 -0.28125 -0.25 Z M 0.203125 -2.640625 C 0.203125 -2.710938 0.222656 -2.769531 0.265625 -2.8125 C 0.316406 -2.863281 0.375 -2.890625 0.4375 -2.890625 C 0.507812 -2.890625 0.566406 -2.863281 0.609375 -2.8125 C 0.660156 -2.769531 0.6875 -2.710938 0.6875 -2.640625 C 0.6875 -2.578125 0.660156 -2.519531 0.609375 -2.46875 C 0.566406 -2.425781 0.507812 -2.40625 0.4375 -2.40625 C 0.375 -2.40625 0.316406 -2.425781 0.265625 -2.46875 C 0.222656 -2.519531 0.203125 -2.578125 0.203125 -2.640625 Z M 0.8125 -2.640625 C 0.8125 -2.710938 0.832031 -2.769531 0.875 -2.8125 C 0.925781 -2.863281 0.984375 -2.890625 1.046875 -2.890625 C 1.117188 -2.890625 1.175781 -2.863281 1.21875 -2.8125 C 1.269531 -2.769531 1.296875 -2.710938 1.296875 -2.640625 C 1.296875 -2.578125 1.269531 -2.519531 1.21875 -2.46875 C 1.175781 -2.425781 1.117188 -2.40625 1.046875 -2.40625 C 0.984375 -2.40625 0.925781 -2.425781 0.875 -2.46875 C 0.832031 -2.519531 0.8125 -2.578125 0.8125 -2.640625 Z M 0.8125 -2.640625 "/></g></g></g><g fill="#ffffff" fill-opacity="1"><g transform="translate(30.917205, 7.062625)"><g><path d="M 1.015625 -4.53125 L 1.015625 -1.109375 C 1.015625 -0.734375 0.929688 -0.453125 0.765625 -0.265625 C 0.597656 -0.0859375 0.34375 0 0 0 C -0.0703125 0 -0.132812 -0.0195312 -0.1875 -0.0625 C -0.25 -0.113281 -0.28125 -0.175781 -0.28125 -0.25 C -0.28125 -0.332031 -0.25 -0.398438 -0.1875 -0.453125 C -0.132812 -0.503906 -0.0703125 -0.53125 0 -0.53125 C 0.125 -0.53125 0.21875 -0.546875 0.28125 -0.578125 C 0.351562 -0.617188 0.40625 -0.671875 0.4375 -0.734375 C 0.46875 -0.804688 0.488281 -0.890625 0.5 -0.984375 C 0.507812 -1.078125 0.515625 -1.1875 0.515625 -1.3125 L 0.515625 -4.203125 Z M 1.015625 -4.53125 "/></g></g></g><g fill="#ffffff" fill-opacity="1"><g transform="translate(32.344586, 7.062625)"><g><path d="M 0.921875 0 L 0.421875 0 L 0.421875 -4.203125 L 0.921875 -4.53125 Z M 0.921875 0 "/></g></g></g><g fill="#ffffff" fill-opacity="1"><g transform="translate(33.688384, 7.062625)"><g><path d="M 1.484375 -2.28125 C 1.628906 -2.28125 1.765625 -2.25 1.890625 -2.1875 C 2.015625 -2.125 2.125 -2.039062 2.21875 -1.9375 C 2.3125 -1.832031 2.382812 -1.707031 2.4375 -1.5625 C 2.488281 -1.425781 2.515625 -1.28125 2.515625 -1.125 L 2.515625 -0.1875 C 2.515625 0.0507812 2.46875 0.265625 2.375 0.453125 C 2.28125 0.648438 2.148438 0.816406 1.984375 0.953125 C 1.828125 1.085938 1.640625 1.191406 1.421875 1.265625 C 1.210938 1.335938 0.992188 1.375 0.765625 1.375 L 0.765625 0.921875 C 0.910156 0.921875 1.050781 0.894531 1.1875 0.84375 C 1.320312 0.800781 1.441406 0.738281 1.546875 0.65625 C 1.660156 0.570312 1.753906 0.472656 1.828125 0.359375 C 1.910156 0.242188 1.960938 0.125 1.984375 0 L 1.625 0 C 1.425781 0 1.253906 -0.0234375 1.109375 -0.078125 C 0.960938 -0.140625 0.835938 -0.21875 0.734375 -0.3125 C 0.628906 -0.414062 0.550781 -0.535156 0.5 -0.671875 C 0.445312 -0.804688 0.421875 -0.957031 0.421875 -1.125 C 0.421875 -1.28125 0.445312 -1.425781 0.5 -1.5625 C 0.550781 -1.695312 0.625 -1.816406 0.71875 -1.921875 C 0.8125 -2.035156 0.921875 -2.125 1.046875 -2.1875 C 1.179688 -2.25 1.328125 -2.28125 1.484375 -2.28125 Z M 2.015625 -0.53125 L 2.015625 -1.125 C 2.015625 -1.207031 2 -1.285156 1.96875 -1.359375 C 1.945312 -1.441406 1.910156 -1.507812 1.859375 -1.5625 C 1.816406 -1.625 1.757812 -1.671875 1.6875 -1.703125 C 1.625 -1.734375 1.554688 -1.75 1.484375 -1.75 C 1.316406 -1.75 1.179688 -1.6875 1.078125 -1.5625 C 0.972656 -1.4375 0.921875 -1.289062 0.921875 -1.125 C 0.921875 -0.945312 0.976562 -0.800781 1.09375 -0.6875 C 1.21875 -0.582031 1.394531 -0.53125 1.625 -0.53125 Z M 2.015625 -0.53125 "/></g></g></g><g fill="#ffffff" fill-opacity="1"><g transform="translate(36.626735, 7.062625)"><g/></g></g><g fill="#ffffff" fill-opacity="1"><g transform="translate(37.269701, 7.062625)"><g><path d="M 4.09375 -2.28125 L 4.09375 -1.109375 C 4.09375 -0.734375 4.007812 -0.453125 3.84375 -0.265625 C 3.6875 -0.0859375 3.4375 0 3.09375 0 L 1.578125 0 C 1.210938 0 0.925781 -0.0703125 0.71875 -0.21875 C 0.519531 -0.363281 0.421875 -0.566406 0.421875 -0.828125 C 0.421875 -0.953125 0.429688 -1.0625 0.453125 -1.15625 C 0.472656 -1.25 0.503906 -1.335938 0.546875 -1.421875 C 0.597656 -1.515625 0.65625 -1.597656 0.71875 -1.671875 C 0.789062 -1.753906 0.863281 -1.847656 0.9375 -1.953125 L 1.125 -1.84375 C 1.050781 -1.738281 0.976562 -1.617188 0.90625 -1.484375 C 0.84375 -1.359375 0.8125 -1.226562 0.8125 -1.09375 C 0.8125 -1 0.832031 -0.914062 0.875 -0.84375 C 0.914062 -0.769531 0.972656 -0.707031 1.046875 -0.65625 C 1.117188 -0.613281 1.195312 -0.582031 1.28125 -0.5625 C 1.375 -0.539062 1.460938 -0.53125 1.546875 -0.53125 L 3.078125 -0.53125 C 3.191406 -0.53125 3.285156 -0.546875 3.359375 -0.578125 C 3.429688 -0.617188 3.484375 -0.671875 3.515625 -0.734375 C 3.546875 -0.804688 3.566406 -0.890625 3.578125 -0.984375 C 3.585938 -1.078125 3.59375 -1.1875 3.59375 -1.3125 L 3.59375 -1.953125 Z M 1.703125 -2.328125 C 1.703125 -2.398438 1.722656 -2.457031 1.765625 -2.5 C 1.816406 -2.550781 1.875 -2.578125 1.9375 -2.578125 C 2.007812 -2.578125 2.066406 -2.550781 2.109375 -2.5 C 2.160156 -2.457031 2.1875 -2.398438 2.1875 -2.328125 C 2.1875 -2.265625 2.160156 -2.207031 2.109375 -2.15625 C 2.066406 -2.113281 2.007812 -2.09375 1.9375 -2.09375 C 1.875 -2.09375 1.816406 -2.113281 1.765625 -2.15625 C 1.722656 -2.207031 1.703125 -2.265625 1.703125 -2.328125 Z M 2.3125 -2.328125 C 2.3125 -2.398438 2.332031 -2.457031 2.375 -2.5 C 2.425781 -2.550781 2.484375 -2.578125 2.546875 -2.578125 C 2.617188 -2.578125 2.675781 -2.550781 2.71875 -2.5 C 2.769531 -2.457031 2.796875 -2.398438 2.796875 -2.328125 C 2.796875 -2.265625 2.769531 -2.207031 2.71875 -2.15625 C 2.675781 -2.113281 2.617188 -2.09375 2.546875 -2.09375 C 2.484375 -2.09375 2.425781 -2.113281 2.375 -2.15625 C 2.332031 -2.207031 2.3125 -2.265625 2.3125 -2.328125 Z M 2.3125 -2.328125 "/></g></g></g><g fill="#ffffff" fill-opacity="1"><g transform="translate(41.789744, 7.062625)"><g><path d="M 1.34375 0 C 1.007812 0 0.769531 -0.09375 0.625 -0.28125 C 0.488281 -0.46875 0.421875 -0.742188 0.421875 -1.109375 L 0.421875 -4.203125 L 0.921875 -4.53125 L 0.921875 -1.109375 C 0.921875 -0.921875 0.953125 -0.773438 1.015625 -0.671875 C 1.085938 -0.578125 1.195312 -0.53125 1.34375 -0.53125 Z M 1.34375 0 "/></g></g></g><g fill="#ffffff" fill-opacity="1"><g transform="translate(43.133541, 7.062625)"><g><path d="M -0.28125 -0.25 C -0.28125 -0.332031 -0.25 -0.398438 -0.1875 -0.453125 C -0.132812 -0.503906 -0.0703125 -0.53125 0 -0.53125 L 1.28125 -0.53125 L 1.28125 0 L 0 0 C -0.0703125 0 -0.132812 -0.0195312 -0.1875 -0.0625 C -0.25 -0.113281 -0.28125 -0.175781 -0.28125 -0.25 Z M -0.28125 -0.25 "/></g></g></g><g fill="#ffffff" fill-opacity="1"><g transform="translate(44.419473, 7.062625)"><g><path d="M -0.28125 -0.25 C -0.28125 -0.332031 -0.25 -0.398438 -0.1875 -0.453125 C -0.132812 -0.503906 -0.0703125 -0.53125 0 -0.53125 L 1.28125 -0.53125 L 1.28125 0 L 0 0 C -0.0703125 0 -0.132812 -0.0195312 -0.1875 -0.0625 C -0.25 -0.113281 -0.28125 -0.175781 -0.28125 -0.25 Z M -0.28125 -0.25 "/></g></g></g><g fill="#ffffff" fill-opacity="1"><g transform="translate(45.705401, 7.062625)"><g><path d="M 0 0 C -0.0703125 0 -0.132812 -0.0195312 -0.1875 -0.0625 C -0.25 -0.113281 -0.28125 -0.175781 -0.28125 -0.25 C -0.28125 -0.332031 -0.25 -0.398438 -0.1875 -0.453125 C -0.132812 -0.503906 -0.0703125 -0.53125 0 -0.53125 L 0.40625 -0.53125 L 0.578125 -0.453125 C 0.515625 -0.535156 0.472656 -0.628906 0.453125 -0.734375 C 0.429688 -0.835938 0.421875 -0.941406 0.421875 -1.046875 C 0.421875 -1.234375 0.457031 -1.40625 0.53125 -1.5625 C 0.613281 -1.71875 0.722656 -1.847656 0.859375 -1.953125 L 0.28125 -1.953125 L 0.484375 -2.46875 L 2.34375 -2.46875 C 2.5 -2.46875 2.640625 -2.441406 2.765625 -2.390625 C 2.898438 -2.335938 3.007812 -2.257812 3.09375 -2.15625 C 3.1875 -2.050781 3.253906 -1.929688 3.296875 -1.796875 C 3.347656 -1.660156 3.375 -1.503906 3.375 -1.328125 L 3.375 -0.53125 L 3.78125 -0.53125 L 3.78125 0 Z M 1.84375 -0.53125 L 1.84375 -1.03125 C 1.84375 -1.175781 1.800781 -1.300781 1.71875 -1.40625 C 1.632812 -1.507812 1.53125 -1.5625 1.40625 -1.5625 C 1.257812 -1.5625 1.140625 -1.507812 1.046875 -1.40625 C 0.960938 -1.300781 0.921875 -1.175781 0.921875 -1.03125 C 0.921875 -0.882812 0.972656 -0.765625 1.078125 -0.671875 C 1.179688 -0.578125 1.328125 -0.53125 1.515625 -0.53125 Z M 1.921875 -1.953125 C 2.054688 -1.847656 2.160156 -1.71875 2.234375 -1.5625 C 2.316406 -1.40625 2.359375 -1.234375 2.359375 -1.046875 L 2.359375 -0.53125 L 2.859375 -0.53125 L 2.859375 -1.328125 C 2.859375 -1.503906 2.8125 -1.648438 2.71875 -1.765625 C 2.632812 -1.890625 2.507812 -1.953125 2.34375 -1.953125 Z M 1.921875 -1.953125 "/></g></g></g><g fill="#ffffff" fill-opacity="1"><g transform="translate(49.498894, 7.062625)"><g><path d="M -0.28125 -0.25 C -0.28125 -0.332031 -0.25 -0.398438 -0.1875 -0.453125 C -0.132812 -0.503906 -0.0703125 -0.53125 0 -0.53125 L 2.03125 -0.53125 L 2.03125 -1.140625 C 2.03125 -1.316406 1.984375 -1.460938 1.890625 -1.578125 C 1.804688 -1.691406 1.679688 -1.75 1.515625 -1.75 L 0.46875 -1.75 L 0.65625 -2.28125 L 1.515625 -2.28125 C 1.671875 -2.28125 1.8125 -2.25 1.9375 -2.1875 C 2.070312 -2.132812 2.179688 -2.054688 2.265625 -1.953125 C 2.359375 -1.859375 2.425781 -1.738281 2.46875 -1.59375 C 2.519531 -1.457031 2.546875 -1.304688 2.546875 -1.140625 L 2.546875 -0.53125 L 2.765625 -0.53125 L 2.578125 0 L 0 0 C -0.0703125 0 -0.132812 -0.0195312 -0.1875 -0.0625 C -0.25 -0.113281 -0.28125 -0.175781 -0.28125 -0.25 Z M 0.96875 0.5625 C 0.96875 0.488281 0.988281 0.425781 1.03125 0.375 C 1.070312 0.332031 1.128906 0.3125 1.203125 0.3125 C 1.273438 0.3125 1.332031 0.332031 1.375 0.375 C 1.425781 0.425781 1.453125 0.488281 1.453125 0.5625 C 1.453125 0.625 1.425781 0.675781 1.375 0.71875 C 1.332031 0.769531 1.273438 0.796875 1.203125 0.796875 C 1.128906 0.796875 1.070312 0.769531 1.03125 0.71875 C 0.988281 0.675781 0.96875 0.625 0.96875 0.5625 Z M 0.96875 0.5625 "/></g></g></g><g fill="#ffffff" fill-opacity="1"><g transform="translate(52.462963, 7.062625)"><g><path d="M 0.921875 0 L 0.421875 0 L 0.421875 -4.203125 L 0.921875 -4.53125 Z M 0.921875 0 "/></g></g></g><g fill="#ffffff" fill-opacity="1"><g transform="translate(53.80676, 7.062625)"><g><path d="M 2.5 0 C 2.476562 0.21875 2.414062 0.410156 2.3125 0.578125 C 2.207031 0.742188 2.078125 0.882812 1.921875 1 C 1.765625 1.125 1.582031 1.21875 1.375 1.28125 C 1.175781 1.34375 0.972656 1.375 0.765625 1.375 L 0.765625 0.921875 C 0.910156 0.921875 1.050781 0.894531 1.1875 0.84375 C 1.320312 0.800781 1.441406 0.738281 1.546875 0.65625 C 1.660156 0.570312 1.753906 0.472656 1.828125 0.359375 C 1.910156 0.242188 1.960938 0.125 1.984375 0 L 1.625 0 C 1.425781 0 1.253906 -0.0234375 1.109375 -0.078125 C 0.960938 -0.140625 0.835938 -0.21875 0.734375 -0.3125 C 0.628906 -0.414062 0.550781 -0.535156 0.5 -0.671875 C 0.445312 -0.804688 0.421875 -0.957031 0.421875 -1.125 C 0.421875 -1.28125 0.445312 -1.425781 0.5 -1.5625 C 0.550781 -1.695312 0.625 -1.816406 0.71875 -1.921875 C 0.8125 -2.035156 0.921875 -2.125 1.046875 -2.1875 C 1.179688 -2.25 1.328125 -2.28125 1.484375 -2.28125 C 1.628906 -2.28125 1.765625 -2.25 1.890625 -2.1875 C 2.015625 -2.125 2.125 -2.039062 2.21875 -1.9375 C 2.3125 -1.832031 2.382812 -1.707031 2.4375 -1.5625 C 2.488281 -1.425781 2.515625 -1.28125 2.515625 -1.125 L 2.515625 -0.53125 L 2.9375 -0.53125 L 2.9375 0 Z M 2.015625 -0.53125 L 2.015625 -1.125 C 2.015625 -1.207031 2 -1.285156 1.96875 -1.359375 C 1.945312 -1.441406 1.910156 -1.507812 1.859375 -1.5625 C 1.816406 -1.625 1.757812 -1.671875 1.6875 -1.703125 C 1.625 -1.734375 1.554688 -1.75 1.484375 -1.75 C 1.316406 -1.75 1.179688 -1.6875 1.078125 -1.5625 C 0.972656 -1.4375 0.921875 -1.289062 0.921875 -1.125 C 0.921875 -0.945312 0.976562 -0.800781 1.09375 -0.6875 C 1.21875 -0.582031 1.394531 -0.53125 1.625 -0.53125 Z M 2.015625 -0.53125 "/></g></g></g><g fill="#ffffff" fill-opacity="1"><g transform="translate(56.745111, 7.062625)"><g><path d="M 1.015625 -4.53125 L 1.015625 -1.109375 C 1.015625 -0.734375 0.929688 -0.453125 0.765625 -0.265625 C 0.597656 -0.0859375 0.34375 0 0 0 C -0.0703125 0 -0.132812 -0.0195312 -0.1875 -0.0625 C -0.25 -0.113281 -0.28125 -0.175781 -0.28125 -0.25 C -0.28125 -0.332031 -0.25 -0.398438 -0.1875 -0.453125 C -0.132812 -0.503906 -0.0703125 -0.53125 0 -0.53125 C 0.125 -0.53125 0.21875 -0.546875 0.28125 -0.578125 C 0.351562 -0.617188 0.40625 -0.671875 0.4375 -0.734375 C 0.46875 -0.804688 0.488281 -0.890625 0.5 -0.984375 C 0.507812 -1.078125 0.515625 -1.1875 0.515625 -1.3125 L 0.515625 -4.203125 Z M 1.015625 -4.53125 "/></g></g></g><g fill="#ffffff" fill-opacity="1"><g transform="translate(58.172493, 7.062625)"><g><path d="M 0.921875 0 L 0.421875 0 L 0.421875 -4.203125 L 0.921875 -4.53125 Z M 0.921875 0 "/></g></g></g><g fill="#ffffff" fill-opacity="1"><g transform="translate(59.51629, 7.062625)"><g/></g></g><g fill="#ffffff" fill-opacity="1"><g transform="translate(60.159256, 7.062625)"><g><path d="M 1.578125 0 C 1.210938 0 0.925781 -0.0703125 0.71875 -0.21875 C 0.519531 -0.363281 0.421875 -0.566406 0.421875 -0.828125 C 0.421875 -0.953125 0.429688 -1.0625 0.453125 -1.15625 C 0.472656 -1.25 0.503906 -1.335938 0.546875 -1.421875 C 0.597656 -1.515625 0.65625 -1.597656 0.71875 -1.671875 C 0.789062 -1.753906 0.863281 -1.847656 0.9375 -1.953125 L 1.125 -1.84375 C 1.050781 -1.738281 0.976562 -1.617188 0.90625 -1.484375 C 0.84375 -1.359375 0.8125 -1.226562 0.8125 -1.09375 C 0.8125 -1 0.832031 -0.914062 0.875 -0.84375 C 0.914062 -0.78125 0.972656 -0.722656 1.046875 -0.671875 C 1.117188 -0.628906 1.195312 -0.59375 1.28125 -0.5625 C 1.375 -0.539062 1.460938 -0.53125 1.546875 -0.53125 L 2.8125 -0.53125 L 3.015625 -0.453125 C 2.953125 -0.523438 2.898438 -0.625 2.859375 -0.75 C 2.828125 -0.882812 2.8125 -1.007812 2.8125 -1.125 C 2.8125 -1.28125 2.835938 -1.425781 2.890625 -1.5625 C 2.941406 -1.695312 3.015625 -1.816406 3.109375 -1.921875 C 3.203125 -2.035156 3.3125 -2.125 3.4375 -2.1875 C 3.570312 -2.25 3.722656 -2.28125 3.890625 -2.28125 C 4.035156 -2.28125 4.171875 -2.25 4.296875 -2.1875 C 4.421875 -2.125 4.53125 -2.039062 4.625 -1.9375 C 4.71875 -1.832031 4.789062 -1.707031 4.84375 -1.5625 C 4.894531 -1.425781 4.921875 -1.28125 4.921875 -1.125 L 4.921875 -0.53125 L 5.34375 -0.53125 L 5.34375 0 Z M 4.40625 -0.53125 L 4.40625 -1.125 C 4.40625 -1.207031 4.390625 -1.285156 4.359375 -1.359375 C 4.335938 -1.441406 4.300781 -1.507812 4.25 -1.5625 C 4.207031 -1.625 4.15625 -1.671875 4.09375 -1.703125 C 4.03125 -1.734375 3.960938 -1.75 3.890625 -1.75 C 3.722656 -1.75 3.585938 -1.6875 3.484375 -1.5625 C 3.378906 -1.4375 3.328125 -1.289062 3.328125 -1.125 C 3.328125 -0.945312 3.382812 -0.800781 3.5 -0.6875 C 3.625 -0.582031 3.796875 -0.53125 4.015625 -0.53125 Z M 3.65625 -2.828125 C 3.65625 -2.898438 3.675781 -2.957031 3.71875 -3 C 3.757812 -3.050781 3.816406 -3.078125 3.890625 -3.078125 C 3.960938 -3.078125 4.019531 -3.050781 4.0625 -3 C 4.113281 -2.957031 4.140625 -2.898438 4.140625 -2.828125 C 4.140625 -2.765625 4.113281 -2.707031 4.0625 -2.65625 C 4.019531 -2.613281 3.960938 -2.59375 3.890625 -2.59375 C 3.816406 -2.59375 3.757812 -2.613281 3.71875 -2.65625 C 3.675781 -2.707031 3.65625 -2.765625 3.65625 -2.828125 Z M 3.65625 -2.828125 "/></g></g></g><g fill="#ffffff" fill-opacity="1"><g transform="translate(65.502294, 7.062625)"><g><path d="M -0.28125 -0.25 C -0.28125 -0.332031 -0.25 -0.398438 -0.1875 -0.453125 C -0.132812 -0.503906 -0.0703125 -0.53125 0 -0.53125 L 1.28125 -0.53125 L 1.28125 0 L 0 0 C -0.0703125 0 -0.132812 -0.0195312 -0.1875 -0.0625 C -0.25 -0.113281 -0.28125 -0.175781 -0.28125 -0.25 Z M -0.28125 -0.25 "/></g></g></g><g fill="#ffffff" fill-opacity="1"><g transform="translate(66.788222, 7.062625)"><g><path d="M -0.28125 -0.25 C -0.28125 -0.332031 -0.25 -0.398438 -0.1875 -0.453125 C -0.132812 -0.503906 -0.0703125 -0.53125 0 -0.53125 L 1.28125 -0.53125 L 1.28125 0 L 0 0 C -0.0703125 0 -0.132812 -0.0195312 -0.1875 -0.0625 C -0.25 -0.113281 -0.28125 -0.175781 -0.28125 -0.25 Z M -0.28125 -0.25 "/></g></g></g><g fill="#ffffff" fill-opacity="1"><g transform="translate(68.074154, 7.062625)"><g><path d="M -0.28125 -0.25 C -0.28125 -0.332031 -0.25 -0.398438 -0.1875 -0.453125 C -0.132812 -0.503906 -0.0703125 -0.53125 0 -0.53125 C 0.1875 -0.53125 0.316406 -0.582031 0.390625 -0.6875 C 0.472656 -0.789062 0.515625 -0.957031 0.515625 -1.1875 L 0.515625 -1.765625 L 1.03125 -2.09375 C 1.019531 -1.90625 1.015625 -1.738281 1.015625 -1.59375 L 1.015625 -1.015625 C 1.015625 -0.878906 1.054688 -0.765625 1.140625 -0.671875 C 1.222656 -0.585938 1.335938 -0.539062 1.484375 -0.53125 L 1.484375 0 C 1.421875 0 1.351562 -0.00390625 1.28125 -0.015625 C 1.21875 -0.0234375 1.15625 -0.0390625 1.09375 -0.0625 C 1.03125 -0.09375 0.96875 -0.128906 0.90625 -0.171875 C 0.851562 -0.222656 0.8125 -0.28125 0.78125 -0.34375 C 0.625 -0.113281 0.363281 0 0 0 C -0.0703125 0 -0.132812 -0.0195312 -0.1875 -0.0625 C -0.25 -0.113281 -0.28125 -0.175781 -0.28125 -0.25 Z M 0.171875 0.5625 C 0.171875 0.488281 0.191406 0.425781 0.234375 0.375 C 0.285156 0.332031 0.34375 0.3125 0.40625 0.3125 C 0.476562 0.3125 0.535156 0.332031 0.578125 0.375 C 0.628906 0.425781 0.65625 0.488281 0.65625 0.5625 C 0.65625 0.625 0.628906 0.675781 0.578125 0.71875 C 0.535156 0.769531 0.476562 0.796875 0.40625 0.796875 C 0.34375 0.796875 0.285156 0.769531 0.234375 0.71875 C 0.191406 0.675781 0.171875 0.625 0.171875 0.5625 Z M 0.78125 0.5625 C 0.78125 0.488281 0.800781 0.425781 0.84375 0.375 C 0.894531 0.332031 0.953125 0.3125 1.015625 0.3125 C 1.085938 0.3125 1.144531 0.332031 1.1875 0.375 C 1.238281 0.425781 1.265625 0.488281 1.265625 0.5625 C 1.265625 0.625 1.238281 0.675781 1.1875 0.71875 C 1.144531 0.769531 1.085938 0.796875 1.015625 0.796875 C 0.953125 0.796875 0.894531 0.769531 0.84375 0.71875 C 0.800781 0.675781 0.78125 0.625 0.78125 0.5625 Z M 0.78125 0.5625 "/></g></g></g><g fill="#ffffff" fill-opacity="1"><g transform="translate(69.565834, 7.062625)"><g><path d="M -0.28125 -0.25 C -0.28125 -0.332031 -0.25 -0.398438 -0.1875 -0.453125 C -0.132812 -0.503906 -0.0703125 -0.53125 0 -0.53125 L 1.28125 -0.53125 L 1.28125 0 L 0 0 C -0.0703125 0 -0.132812 -0.0195312 -0.1875 -0.0625 C -0.25 -0.113281 -0.28125 -0.175781 -0.28125 -0.25 Z M -0.28125 -0.25 "/></g></g></g><g fill="#ffffff" fill-opacity="1"><g transform="translate(70.851766, 7.062625)"><g><path d="M -0.28125 -0.25 C -0.28125 -0.332031 -0.25 -0.398438 -0.1875 -0.453125 C -0.132812 -0.503906 -0.0703125 -0.53125 0 -0.53125 L 1.28125 -0.53125 L 1.28125 0 L 0 0 C -0.0703125 0 -0.132812 -0.0195312 -0.1875 -0.0625 C -0.25 -0.113281 -0.28125 -0.175781 -0.28125 -0.25 Z M -0.28125 -0.25 "/></g></g></g><g fill="#ffffff" fill-opacity="1"><g transform="translate(72.137693, 7.062625)"><g><path d="M 0 0 C -0.0703125 0 -0.132812 -0.0195312 -0.1875 -0.0625 C -0.25 -0.113281 -0.28125 -0.175781 -0.28125 -0.25 C -0.28125 -0.332031 -0.25 -0.398438 -0.1875 -0.453125 C -0.132812 -0.503906 -0.0703125 -0.53125 0 -0.53125 L 0.421875 -0.53125 L 0.421875 -4.203125 L 0.921875 -4.53125 L 0.921875 -1.34375 L 0.96875 -1.34375 C 1.050781 -1.46875 1.140625 -1.585938 1.234375 -1.703125 C 1.335938 -1.816406 1.445312 -1.914062 1.5625 -2 C 1.6875 -2.082031 1.816406 -2.148438 1.953125 -2.203125 C 2.085938 -2.253906 2.234375 -2.28125 2.390625 -2.28125 C 2.578125 -2.28125 2.75 -2.253906 2.90625 -2.203125 C 3.0625 -2.160156 3.195312 -2.09375 3.3125 -2 C 3.425781 -1.90625 3.515625 -1.785156 3.578125 -1.640625 C 3.640625 -1.492188 3.671875 -1.316406 3.671875 -1.109375 L 3.671875 -0.53125 L 4.078125 -0.53125 L 4.078125 0 Z M 3.15625 -0.53125 L 3.15625 -0.9375 C 3.15625 -1.195312 3.082031 -1.394531 2.9375 -1.53125 C 2.789062 -1.675781 2.597656 -1.75 2.359375 -1.75 C 2.179688 -1.75 2.019531 -1.707031 1.875 -1.625 C 1.726562 -1.550781 1.59375 -1.457031 1.46875 -1.34375 C 1.34375 -1.226562 1.234375 -1.097656 1.140625 -0.953125 C 1.054688 -0.804688 0.984375 -0.664062 0.921875 -0.53125 Z M 2 -2.828125 C 2 -2.898438 2.019531 -2.957031 2.0625 -3 C 2.101562 -3.050781 2.160156 -3.078125 2.234375 -3.078125 C 2.304688 -3.078125 2.363281 -3.050781 2.40625 -3 C 2.457031 -2.957031 2.484375 -2.898438 2.484375 -2.828125 C 2.484375 -2.765625 2.457031 -2.707031 2.40625 -2.65625 C 2.363281 -2.613281 2.304688 -2.59375 2.234375 -2.59375 C 2.160156 -2.59375 2.101562 -2.613281 2.0625 -2.65625 C 2.019531 -2.707031 2 -2.765625 2 -2.828125 Z M 2 -2.828125 "/></g></g></g><g fill="#ffffff" fill-opacity="1"><g transform="translate(76.226951, 7.062625)"><g><path d="M -0.28125 -0.25 C -0.28125 -0.332031 -0.25 -0.398438 -0.1875 -0.453125 C -0.132812 -0.503906 -0.0703125 -0.53125 0 -0.53125 C 0.1875 -0.53125 0.316406 -0.582031 0.390625 -0.6875 C 0.472656 -0.789062 0.515625 -0.957031 0.515625 -1.1875 L 0.515625 -1.765625 L 1.03125 -2.09375 C 1.019531 -1.90625 1.015625 -1.738281 1.015625 -1.59375 L 1.015625 -1.015625 C 1.015625 -0.878906 1.054688 -0.765625 1.140625 -0.671875 C 1.222656 -0.585938 1.335938 -0.539062 1.484375 -0.53125 L 1.484375 0 C 1.421875 0 1.351562 -0.00390625 1.28125 -0.015625 C 1.21875 -0.0234375 1.15625 -0.0390625 1.09375 -0.0625 C 1.03125 -0.09375 0.96875 -0.128906 0.90625 -0.171875 C 0.851562 -0.222656 0.8125 -0.28125 0.78125 -0.34375 C 0.625 -0.113281 0.363281 0 0 0 C -0.0703125 0 -0.132812 -0.0195312 -0.1875 -0.0625 C -0.25 -0.113281 -0.28125 -0.175781 -0.28125 -0.25 Z M 0.484375 -2.640625 C 0.484375 -2.710938 0.503906 -2.769531 0.546875 -2.8125 C 0.585938 -2.863281 0.644531 -2.890625 0.71875 -2.890625 C 0.789062 -2.890625 0.847656 -2.863281 0.890625 -2.8125 C 0.941406 -2.769531 0.96875 -2.710938 0.96875 -2.640625 C 0.96875 -2.578125 0.941406 -2.519531 0.890625 -2.46875 C 0.847656 -2.425781 0.789062 -2.40625 0.71875 -2.40625 C 0.644531 -2.40625 0.585938 -2.425781 0.546875 -2.46875 C 0.503906 -2.519531 0.484375 -2.578125 0.484375 -2.640625 Z M 0.484375 -2.640625 "/></g></g></g><g fill="#ffffff" fill-opacity="1"><g transform="translate(77.71863, 7.062625)"><g><path d="M 1.015625 -2.28125 L 1.015625 -1.109375 C 1.015625 -0.367188 0.675781 0 0 0 C -0.0703125 0 -0.132812 -0.0195312 -0.1875 -0.0625 C -0.25 -0.113281 -0.28125 -0.175781 -0.28125 -0.25 C -0.28125 -0.332031 -0.25 -0.398438 -0.1875 -0.453125 C -0.132812 -0.503906 -0.0703125 -0.53125 0 -0.53125 C 0.125 -0.53125 0.21875 -0.546875 0.28125 -0.578125 C 0.351562 -0.617188 0.40625 -0.671875 0.4375 -0.734375 C 0.46875 -0.804688 0.488281 -0.890625 0.5 -0.984375 C 0.507812 -1.078125 0.515625 -1.1875 0.515625 -1.3125 L 0.515625 -1.953125 Z M 0.109375 -2.828125 C 0.109375 -2.898438 0.128906 -2.957031 0.171875 -3 C 0.222656 -3.050781 0.28125 -3.078125 0.34375 -3.078125 C 0.414062 -3.078125 0.472656 -3.050781 0.515625 -3 C 0.566406 -2.957031 0.59375 -2.898438 0.59375 -2.828125 C 0.59375 -2.765625 0.566406 -2.707031 0.515625 -2.65625 C 0.472656 -2.613281 0.414062 -2.59375 0.34375 -2.59375 C 0.28125 -2.59375 0.222656 -2.613281 0.171875 -2.65625 C 0.128906 -2.707031 0.109375 -2.765625 0.109375 -2.828125 Z M 0.71875 -2.828125 C 0.71875 -2.898438 0.738281 -2.957031 0.78125 -3 C 0.832031 -3.050781 0.890625 -3.078125 0.953125 -3.078125 C 1.023438 -3.078125 1.082031 -3.050781 1.125 -3 C 1.175781 -2.957031 1.203125 -2.898438 1.203125 -2.828125 C 1.203125 -2.765625 1.175781 -2.707031 1.125 -2.65625 C 1.082031 -2.613281 1.023438 -2.59375 0.953125 -2.59375 C 0.890625 -2.59375 0.832031 -2.613281 0.78125 -2.65625 C 0.738281 -2.707031 0.71875 -2.765625 0.71875 -2.828125 Z M 0.71875 -2.828125 "/></g></g></g><g fill="#ffffff" fill-opacity="1"><g transform="translate(79.158869, 7.062625)"><g/></g></g><g fill="#ffffff" fill-opacity="1"><g transform="translate(79.801844, 7.062625)"><g><path d="M 4.09375 -2.28125 L 4.09375 -1.109375 C 4.09375 -0.734375 4.007812 -0.453125 3.84375 -0.265625 C 3.6875 -0.0859375 3.4375 0 3.09375 0 L 1.578125 0 C 1.210938 0 0.925781 -0.0703125 0.71875 -0.21875 C 0.519531 -0.363281 0.421875 -0.566406 0.421875 -0.828125 C 0.421875 -0.953125 0.429688 -1.0625 0.453125 -1.15625 C 0.472656 -1.25 0.503906 -1.335938 0.546875 -1.421875 C 0.597656 -1.515625 0.65625 -1.597656 0.71875 -1.671875 C 0.789062 -1.753906 0.863281 -1.847656 0.9375 -1.953125 L 1.125 -1.84375 C 1.050781 -1.738281 0.976562 -1.617188 0.90625 -1.484375 C 0.84375 -1.359375 0.8125 -1.226562 0.8125 -1.09375 C 0.8125 -1 0.832031 -0.914062 0.875 -0.84375 C 0.914062 -0.769531 0.972656 -0.707031 1.046875 -0.65625 C 1.117188 -0.613281 1.195312 -0.582031 1.28125 -0.5625 C 1.375 -0.539062 1.460938 -0.53125 1.546875 -0.53125 L 3.078125 -0.53125 C 3.191406 -0.53125 3.285156 -0.546875 3.359375 -0.578125 C 3.429688 -0.617188 3.484375 -0.671875 3.515625 -0.734375 C 3.546875 -0.804688 3.566406 -0.890625 3.578125 -0.984375 C 3.585938 -1.078125 3.59375 -1.1875 3.59375 -1.3125 L 3.59375 -1.953125 Z M 1.703125 -2.328125 C 1.703125 -2.398438 1.722656 -2.457031 1.765625 -2.5 C 1.816406 -2.550781 1.875 -2.578125 1.9375 -2.578125 C 2.007812 -2.578125 2.066406 -2.550781 2.109375 -2.5 C 2.160156 -2.457031 2.1875 -2.398438 2.1875 -2.328125 C 2.1875 -2.265625 2.160156 -2.207031 2.109375 -2.15625 C 2.066406 -2.113281 2.007812 -2.09375 1.9375 -2.09375 C 1.875 -2.09375 1.816406 -2.113281 1.765625 -2.15625 C 1.722656 -2.207031 1.703125 -2.265625 1.703125 -2.328125 Z M 2.3125 -2.328125 C 2.3125 -2.398438 2.332031 -2.457031 2.375 -2.5 C 2.425781 -2.550781 2.484375 -2.578125 2.546875 -2.578125 C 2.617188 -2.578125 2.675781 -2.550781 2.71875 -2.5 C 2.769531 -2.457031 2.796875 -2.398438 2.796875 -2.328125 C 2.796875 -2.265625 2.769531 -2.207031 2.71875 -2.15625 C 2.675781 -2.113281 2.617188 -2.09375 2.546875 -2.09375 C 2.484375 -2.09375 2.425781 -2.113281 2.375 -2.15625 C 2.332031 -2.207031 2.3125 -2.265625 2.3125 -2.328125 Z M 2.3125 -2.328125 "/></g></g></g><g fill="#ffffff" fill-opacity="1"><g transform="translate(84.321882, 7.062625)"><g><path d="M 1.34375 0 C 1.007812 0 0.769531 -0.09375 0.625 -0.28125 C 0.488281 -0.46875 0.421875 -0.742188 0.421875 -1.109375 L 0.421875 -4.203125 L 0.921875 -4.53125 L 0.921875 -1.109375 C 0.921875 -0.921875 0.953125 -0.773438 1.015625 -0.671875 C 1.085938 -0.578125 1.195312 -0.53125 1.34375 -0.53125 Z M 1.34375 0 "/></g></g></g><g fill="#ffffff" fill-opacity="1"><g transform="translate(85.66568, 7.062625)"><g><path d="M -0.28125 -0.25 C -0.28125 -0.332031 -0.25 -0.398438 -0.1875 -0.453125 C -0.132812 -0.503906 -0.0703125 -0.53125 0 -0.53125 L 1.28125 -0.53125 L 1.28125 0 L 0 0 C -0.0703125 0 -0.132812 -0.0195312 -0.1875 -0.0625 C -0.25 -0.113281 -0.28125 -0.175781 -0.28125 -0.25 Z M -0.28125 -0.25 "/></g></g></g><g fill="#ffffff" fill-opacity="1"><g transform="translate(86.951612, 7.062625)"><g><path d="M -0.28125 -0.25 C -0.28125 -0.332031 -0.25 -0.398438 -0.1875 -0.453125 C -0.132812 -0.503906 -0.0703125 -0.53125 0 -0.53125 L 1.28125 -0.53125 L 1.28125 0 L 0 0 C -0.0703125 0 -0.132812 -0.0195312 -0.1875 -0.0625 C -0.25 -0.113281 -0.28125 -0.175781 -0.28125 -0.25 Z M -0.28125 -0.25 "/></g></g></g><g fill="#ffffff" fill-opacity="1"><g transform="translate(88.237534, 7.062625)"><g><path d="M -0.28125 -0.25 C -0.28125 -0.332031 -0.25 -0.398438 -0.1875 -0.453125 C -0.132812 -0.503906 -0.0703125 -0.53125 0 -0.53125 C 0.113281 -0.53125 0.203125 -0.550781 0.265625 -0.59375 C 0.328125 -0.632812 0.375 -0.679688 0.40625 -0.734375 C 0.4375 -0.796875 0.453125 -0.863281 0.453125 -0.9375 C 0.460938 -1.007812 0.46875 -1.070312 0.46875 -1.125 C 0.46875 -1.28125 0.488281 -1.425781 0.53125 -1.5625 C 0.582031 -1.695312 0.65625 -1.816406 0.75 -1.921875 C 0.851562 -2.035156 0.96875 -2.125 1.09375 -2.1875 C 1.226562 -2.25 1.375 -2.28125 1.53125 -2.28125 C 1.675781 -2.28125 1.8125 -2.25 1.9375 -2.1875 C 2.0625 -2.125 2.171875 -2.039062 2.265625 -1.9375 C 2.359375 -1.832031 2.429688 -1.707031 2.484375 -1.5625 C 2.535156 -1.425781 2.5625 -1.28125 2.5625 -1.125 L 2.5625 0 L 1.65625 0 C 1.46875 0 1.296875 -0.0234375 1.140625 -0.078125 C 0.984375 -0.140625 0.851562 -0.222656 0.75 -0.328125 C 0.664062 -0.210938 0.566406 -0.128906 0.453125 -0.078125 C 0.335938 -0.0234375 0.1875 0 0 0 C -0.0703125 0 -0.132812 -0.0195312 -0.1875 -0.0625 C -0.25 -0.113281 -0.28125 -0.175781 -0.28125 -0.25 Z M 2.0625 -0.53125 L 2.0625 -1.125 C 2.0625 -1.207031 2.046875 -1.285156 2.015625 -1.359375 C 1.992188 -1.441406 1.957031 -1.507812 1.90625 -1.5625 C 1.863281 -1.625 1.804688 -1.671875 1.734375 -1.703125 C 1.671875 -1.734375 1.601562 -1.75 1.53125 -1.75 C 1.363281 -1.75 1.226562 -1.6875 1.125 -1.5625 C 1.019531 -1.4375 0.96875 -1.289062 0.96875 -1.125 C 0.96875 -0.945312 1.023438 -0.800781 1.140625 -0.6875 C 1.265625 -0.582031 1.4375 -0.53125 1.65625 -0.53125 Z M 2.0625 -0.53125 "/></g></g></g><g fill="#ffffff" fill-opacity="1"><g transform="translate(91.220894, 7.062625)"><g><path d="M 0.25 0 L 0.453125 -0.53125 L 1.890625 -0.53125 L 1.890625 -1.140625 C 1.890625 -1.316406 1.84375 -1.460938 1.75 -1.578125 C 1.65625 -1.691406 1.53125 -1.75 1.375 -1.75 L 0.71875 -1.75 L 0.90625 -2.28125 L 1.375 -2.28125 C 1.53125 -2.28125 1.671875 -2.25 1.796875 -2.1875 C 1.921875 -2.132812 2.023438 -2.054688 2.109375 -1.953125 C 2.203125 -1.859375 2.269531 -1.738281 2.3125 -1.59375 C 2.363281 -1.457031 2.390625 -1.304688 2.390625 -1.140625 L 2.390625 -0.53125 L 2.8125 -0.53125 L 2.8125 0 Z M 0.25 0 "/></g></g></g><g fill="#ffffff" fill-opacity="1"><g transform="translate(94.037086, 7.062625)"><g><path d="M -0.28125 -0.25 C -0.28125 -0.332031 -0.25 -0.398438 -0.1875 -0.453125 C -0.132812 -0.503906 -0.0703125 -0.53125 0 -0.53125 L 1.28125 -0.53125 L 1.28125 0 L 0 0 C -0.0703125 0 -0.132812 -0.0195312 -0.1875 -0.0625 C -0.25 -0.113281 -0.28125 -0.175781 -0.28125 -0.25 Z M -0.28125 -0.25 "/></g></g></g><g fill="#ffffff" fill-opacity="1"><g transform="translate(95.323008, 7.062625)"><g><path d="M -0.28125 -0.25 C -0.28125 -0.332031 -0.25 -0.398438 -0.1875 -0.453125 C -0.132812 -0.503906 -0.0703125 -0.53125 0 -0.53125 L 1.28125 -0.53125 L 1.28125 0 L 0 0 C -0.0703125 0 -0.132812 -0.0195312 -0.1875 -0.0625 C -0.25 -0.113281 -0.28125 -0.175781 -0.28125 -0.25 Z M -0.28125 -0.25 "/></g></g></g><g fill="#ffffff" fill-opacity="1"><g transform="translate(96.60894, 7.062625)"><g><path d="M -0.28125 -0.25 C -0.28125 -0.332031 -0.25 -0.398438 -0.1875 -0.453125 C -0.132812 -0.503906 -0.0703125 -0.53125 0 -0.53125 L 2.03125 -0.53125 L 2.03125 -1.140625 C 2.03125 -1.316406 1.984375 -1.460938 1.890625 -1.578125 C 1.804688 -1.691406 1.679688 -1.75 1.515625 -1.75 L 0.46875 -1.75 L 0.65625 -2.28125 L 1.515625 -2.28125 C 1.671875 -2.28125 1.8125 -2.25 1.9375 -2.1875 C 2.070312 -2.132812 2.179688 -2.054688 2.265625 -1.953125 C 2.359375 -1.859375 2.425781 -1.738281 2.46875 -1.59375 C 2.519531 -1.457031 2.546875 -1.304688 2.546875 -1.140625 L 2.546875 -0.53125 L 2.953125 -0.53125 L 2.953125 0 L 0 0 C -0.0703125 0 -0.132812 -0.0195312 -0.1875 -0.0625 C -0.25 -0.113281 -0.28125 -0.175781 -0.28125 -0.25 Z M 1.109375 -2.828125 C 1.109375 -2.898438 1.128906 -2.957031 1.171875 -3 C 1.210938 -3.050781 1.269531 -3.078125 1.34375 -3.078125 C 1.414062 -3.078125 1.472656 -3.050781 1.515625 -3 C 1.566406 -2.957031 1.59375 -2.898438 1.59375 -2.828125 C 1.59375 -2.765625 1.566406 -2.707031 1.515625 -2.65625 C 1.472656 -2.613281 1.414062 -2.59375 1.34375 -2.59375 C 1.269531 -2.59375 1.210938 -2.613281 1.171875 -2.65625 C 1.128906 -2.707031 1.109375 -2.765625 1.109375 -2.828125 Z M 1.109375 -2.828125 "/></g></g></g><g fill="#ffffff" fill-opacity="1"><g transform="translate(99.573015, 7.062625)"><g><path d="M 1.015625 -4.53125 L 1.015625 -1.109375 C 1.015625 -0.734375 0.929688 -0.453125 0.765625 -0.265625 C 0.597656 -0.0859375 0.34375 0 0 0 C -0.0703125 0 -0.132812 -0.0195312 -0.1875 -0.0625 C -0.25 -0.113281 -0.28125 -0.175781 -0.28125 -0.25 C -0.28125 -0.332031 -0.25 -0.398438 -0.1875 -0.453125 C -0.132812 -0.503906 -0.0703125 -0.53125 0 -0.53125 C 0.125 -0.53125 0.21875 -0.546875 0.28125 -0.578125 C 0.351562 -0.617188 0.40625 -0.671875 0.4375 -0.734375 C 0.46875 -0.804688 0.488281 -0.890625 0.5 -0.984375 C 0.507812 -1.078125 0.515625 -1.1875 0.515625 -1.3125 L 0.515625 -4.203125 Z M 1.015625 -4.53125 "/></g></g></g></g></g><g clip-path="url(#edb831347a)"><path fill="#ffffff" d="M 209.316406 31.707031 L 203.148438 28.136719 L 209.074219 24.714844 L 209.074219 16.007812 L 195.328125 7.984375 L 187.792969 12.546875 L 187.792969 21.386719 L 195.269531 17.09375 L 200.921875 20.359375 L 187.792969 27.859375 L 187.792969 37.011719 L 195.273438 32.6875 L 202.53125 36.847656 Z M 188.398438 13.234375 L 194.652344 16.746094 L 188.398438 20.335938 Z M 195.273438 16.390625 L 195.273438 16.394531 L 188.707031 12.707031 L 195.335938 8.691406 L 208.464844 16.355469 L 208.464844 24.011719 Z M 188.398438 28.210938 L 201.53125 20.710938 L 208.15625 24.539062 L 188.398438 35.957031 Z M 195.882812 32.335938 L 202.542969 28.488281 L 208.222656 31.777344 L 202.488281 36.121094 Z M 195.882812 32.335938 " fill-opacity="1" fill-rule="nonzero"/></g></svg>